<?xml version="1.0" encoding="utf-8"?>
<!-- Generator: Adobe Illustrator 24.1.3, SVG Export Plug-In . SVG Version: 6.00 Build 0)  -->
<svg version="1.1" id="Layer_1" xmlns="http://www.w3.org/2000/svg" xmlns:xlink="http://www.w3.org/1999/xlink" x="0px" y="0px"
	 viewBox="0 0 904 712" style="enable-background:new 0 0 904 712;" xml:space="preserve">
<style type="text/css">
	.st0{opacity:0.2;fill-rule:evenodd;clip-rule:evenodd;fill:#F2F6FF;enable-background:new    ;}
	.st1{fill-rule:evenodd;clip-rule:evenodd;fill:#FFFFFF;}
	.st2{opacity:0.2;fill-rule:evenodd;clip-rule:evenodd;fill:url(#SVGID_1_);enable-background:new    ;}
	.st3{fill-rule:evenodd;clip-rule:evenodd;fill:#97BDFF;}
	.st4{fill-rule:evenodd;clip-rule:evenodd;fill:#6DA3F2;}
	.st5{fill-rule:evenodd;clip-rule:evenodd;fill:#CADEFF;}
	.st6{fill-rule:evenodd;clip-rule:evenodd;fill:#EFF5FF;}
	.st7{fill:#FFFFFF;}
	.st8{fill:#457AE6;}
	.st9{fill-rule:evenodd;clip-rule:evenodd;fill:#D9E4FF;}
	.st10{fill-rule:evenodd;clip-rule:evenodd;fill:#598BFF;}
	.st11{fill-rule:evenodd;clip-rule:evenodd;fill:#6FA0EF;}
	.st12{fill-rule:evenodd;clip-rule:evenodd;fill:#C7E3FF;}
	.st13{fill:none;stroke:#457AE6;stroke-width:1.8;stroke-linecap:round;}
	.st14{fill-rule:evenodd;clip-rule:evenodd;fill:#728BB7;}
	.st15{opacity:0.2;fill-rule:evenodd;clip-rule:evenodd;fill:url(#SVGID_2_);enable-background:new    ;}
	.st16{opacity:0.2;fill-rule:evenodd;clip-rule:evenodd;fill:url(#SVGID_3_);enable-background:new    ;}
	.st17{fill-rule:evenodd;clip-rule:evenodd;fill:#457AE6;}
	.st18{font-family:'Arial-BoldMT';}
	.st19{font-size:14.4px;}
	.st20{opacity:0.7;fill-rule:evenodd;clip-rule:evenodd;fill:#FFFFFF;enable-background:new    ;}
	.st21{fill-rule:evenodd;clip-rule:evenodd;fill:#F2F6FF;}
	.st22{opacity:0.2;fill-rule:evenodd;clip-rule:evenodd;fill:url(#SVGID_4_);enable-background:new    ;}
	.st23{fill-rule:evenodd;clip-rule:evenodd;fill:#A6C1FF;}
	.st24{fill:#672891;}
	.st25{font-family:'SpaceGrotesk-Bold';}
	.st26{font-size:42.3356px;}
	.st27{clip-path:url(#SVGID_6_);}
	.st28{fill:#598BFF;}
	.st29{fill:none;}
	.st30{font-size:12.0798px;}
	.st31{clip-path:url(#SVGID_8_);}
</style>
<g transform="translate(114.844 108.53)">
	<path class="st0" d="M14.4,0H789v603H14.4c-8,0-14.4-6.4-14.4-14.4V14.4C0,6.4,6.4,0,14.4,0z"/>
	<path class="st0" d="M28,32h761v555H28c-6.6,0-12-5.4-12-12V44C16,37.4,21.4,32,28,32z"/>
	<circle class="st1" cx="22" cy="16" r="6"/>
	<circle class="st1" cx="42" cy="16" r="6"/>
	<circle class="st1" cx="62" cy="16" r="6"/>
</g>
<linearGradient id="SVGID_1_" gradientUnits="userSpaceOnUse" x1="145.4748" y1="752.3807" x2="146.4748" y2="752.3807" gradientTransform="matrix(278 0 0 -327 -40037.3242 246519.875)">
	<stop  offset="0" style="stop-color:#FFFFFF"/>
	<stop  offset="1" style="stop-color:#FFFFFF;stop-opacity:0"/>
</linearGradient>
<path class="st2" d="M419.1,327.9h261.8c1,0,1.8,0.8,1.8,1.8v323.4c0,1-0.8,1.8-1.8,1.8H419.1c-8,0-14.4-6.4-14.4-14.4V342.3
	C404.7,334.4,411.1,327.9,419.1,327.9z"/>
<path class="st3" d="M640.4,363.3h9.8c1.6,0,2.9,1.3,2.9,2.9v2.4c0,1.6-1.3,2.9-2.9,2.9h-0.8c-2.6,0-5.3,0.6-7.7,1.7L640,374
	c0.1-0.7-0.5-1.3-1.2-1.8c-0.8-0.5-1.3-1.4-1.3-2.4v-3.6C637.5,364.6,638.8,363.3,640.4,363.3"/>
<path class="st4" d="M641.9,364.8h8.7c1.4,0,2.6,1.1,2.6,2.5v2.1c0,1.4-1.2,2.5-2.6,2.5h-0.7c-2.3,0-4.5-0.3-6.7,0.6l-1.6,0.7
	l-0.7,0.2c0,0,0.2-0.6-0.4-1c-0.7-0.5-1.1-1.2-1.1-2.1v-3.1C639.3,365.9,640.5,364.8,641.9,364.8"/>
<path class="st5" d="M656.2,352h-9.8c-1.6,0-2.9,1.3-2.9,2.9c0,0,0,0,0,0v2.4c0,1.6,1.3,2.9,2.9,2.9c0,0,0,0,0,0h0.8
	c2.6,0,5.3,0.6,7.7,1.7l1.8,0.8c-0.1-0.7,0.5-1.3,1.2-1.8c0.8-0.5,1.3-1.4,1.3-2.4v-3.6C659.2,353.3,657.9,352,656.2,352"/>
<path class="st6" d="M654.8,353.4h-8.7c-1.4,0-2.6,1.1-2.6,2.5v2.1c0,1.4,1.2,2.5,2.6,2.5h0.7c2.3,0,4.5-0.3,6.7,0.6l1.6,0.7
	l0.7,0.2c0,0-0.2-0.6,0.4-1c0.7-0.5,1.1-1.2,1.1-2.1v-3.1C657.3,354.6,656.2,353.4,654.8,353.4"/>
<g>
	<g transform="translate(411.776 334.108)">
		<g>
			<path id="c" d="M215-5.1h249.6c4.4,0,8,3.6,8,8v41.6c0,4.4-3.6,8-8,8H215c-4.4,0-8-3.6-8-8V2.9C207-1.6,210.6-5.1,215-5.1z"/>
		</g>
		<g>
			<path id="c_1_" class="st7" d="M215-5.1h249.6c4.4,0,8,3.6,8,8v41.6c0,4.4-3.6,8-8,8H215c-4.4,0-8-3.6-8-8V2.9
				C207-1.6,210.6-5.1,215-5.1z"/>
		</g>
	</g>
	<path class="st8" d="M848.6,367.7c2.5-1.1,5.1-1.7,7.8-1.7h0.8c1.4,0,2.5-1.1,2.5-2.5l0,0v-2.4c0-1.4-1.1-2.5-2.5-2.5l0,0h-9.8
		c-1.4,0-2.5,1.1-2.5,2.5l0,0v3.6c0,0.8,0.4,1.6,1.1,2.1c0.7,0.5,1.2,1,1.3,1.5L848.6,367.7L848.6,367.7z M847.4,357.8h9.8
		c1.8,0,3.3,1.5,3.3,3.3v2.4c0,1.8-1.5,3.3-3.3,3.3h-0.8c-2.6,0-5.1,0.6-7.5,1.6l-1.8,0.8c-0.2,0.1-0.4,0-0.5-0.2c0-0.1,0-0.2,0-0.2
		c0.1-0.4-0.3-0.9-1-1.4c-0.9-0.6-1.4-1.6-1.4-2.7v-3.6C844.1,359.2,845.6,357.8,847.4,357.8C847.4,357.8,847.4,357.8,847.4,357.8z"
		/>
	<path class="st8" d="M863.3,346.4c1.8,0,3.3,1.5,3.3,3.3c0,0,0,0,0,0v3.6c0,1.1-0.5,2.1-1.4,2.7c-0.7,0.5-1.1,1-1,1.4
		c0,0.2-0.1,0.4-0.3,0.5c-0.1,0-0.2,0-0.2,0l-1.8-0.8c-2.4-1.1-4.9-1.6-7.5-1.6h-0.8c-1.8,0-3.3-1.5-3.3-3.3c0,0,0,0,0,0v-2.4
		c0-1.8,1.5-3.3,3.3-3.3L863.3,346.4L863.3,346.4z M864.7,355.4c0.7-0.5,1.1-1.2,1.1-2.1v-3.6c0-1.4-1.1-2.5-2.5-2.5l0,0h-9.8
		c-1.4,0-2.5,1.1-2.5,2.5l0,0v2.4c0,1.4,1.1,2.5,2.5,2.5l0,0h0.8c2.7,0,5.4,0.6,7.8,1.7l1.3,0.6C863.5,356.4,864,355.9,864.7,355.4
		L864.7,355.4z"/>
	<path class="st9" d="M825.7,329h1v57.6h-1V329z"/>
	<path class="st10" d="M680.1,344.9h47c2,0,3.6,1.6,3.6,3.6v0.8c0,2-1.6,3.6-3.6,3.6h-47c-2,0-3.6-1.6-3.6-3.6l0,0v-0.8
		C676.5,346.5,678.1,344.9,680.1,344.9L680.1,344.9L680.1,344.9z"/>
	<path class="st9" d="M678.3,360h126.1c1,0,1.8,0.8,1.8,1.8c0,1-0.8,1.8-1.8,1.8H678.3c-1,0-1.8-0.8-1.8-1.8
		C676.5,360.8,677.3,360,678.3,360L678.3,360z M678.3,368.8h92.4c1,0,1.8,0.8,1.8,1.8c0,1-0.8,1.8-1.8,1.8h-92.4
		c-1,0-1.8-0.8-1.8-1.8C676.5,369.6,677.3,368.8,678.3,368.8L678.3,368.8z"/>
	<g>
		<path class="st11" d="M645,361.4h6.7c0.4,0,0.8,0.1,1.2,0.2c-0.6-0.6-1.4-0.9-2.3-0.9h-6.7c-1.7,0-3.1,1.2-3.3,2.9l-0.1,5.3
			l3.7,1.5l9.5-1.3l-0.6-5.2C653.4,362.2,643.3,361.4,645,361.4"/>
		<path class="st3" d="M653.9,363.7c-0.1-0.8-0.4-1.6-1-2.1c-0.4-0.1-1.4-0.7-1.8-0.7l-6.1,0.5c-1.7,0-3.1,1.2-3.3,2.9l-0.1,5.2
			l5.5,1.3l6.8-1.7C653.9,369,653.9,363.9,653.9,363.7"/>
		<path class="st8" d="M641.1,368.9h-1v-5.4l0-0.1c0.2-1.9,1.9-3.3,3.8-3.3h6.7c2,0,3.6,1.6,3.8,3.6v5.3h-1v-0.5l0-4.8
			c-0.1-1.5-1.3-2.6-2.8-2.6h-6.7c-1.4,0-2.6,1-2.8,2.4L641.1,368.9L641.1,368.9z"/>
		<path class="st12" d="M647.2,361.6c0.5,0,0.9-0.4,0.9-0.9v-1.8c0-0.5-0.4-0.9-0.9-0.9c-0.5,0-0.9,0.4-0.9,0.9v1.8
			C646.3,361.1,646.7,361.6,647.2,361.6"/>
		<path class="st13" d="M647.2,361.6c0.5,0,0.9-0.4,0.9-0.9v-1.8c0-0.5-0.4-0.9-0.9-0.9c-0.5,0-0.9,0.4-0.9,0.9v1.8
			C646.3,361.1,646.7,361.6,647.2,361.6z"/>
		<path class="st5" d="M647.2,359.4c2.1,0,3.8-2.5,3.8-4.6V351c0-1-0.8-1.9-1.9-1.9h-3.9c-1,0-1.9,0.8-1.9,1.9v3.7
			C643.4,356.9,645.1,359.4,647.2,359.4"/>
		<path class="st1" d="M649.6,354.8V351c0-1-0.8-1.9-1.9-1.9h0.9c1,0,1.9,0.8,1.9,1.9v3.7c0,2.1-1.7,4.6-3.8,4.6c-0.2,0-0.3,0-0.5,0
			C648.1,359,649.6,356.7,649.6,354.8"/>
		<path class="st8" d="M647.2,359.9c-2.3,0-4.3-2.6-4.3-5.1V351c0-1.3,1.1-2.4,2.4-2.4h3.9c1.3,0,2.4,1.1,2.4,2.4v3.7
			C651.5,357.3,649.5,359.9,647.2,359.9L647.2,359.9z M647.2,358.9c1.7,0,3.3-2.1,3.3-4.1V351c0-0.8-0.6-1.4-1.4-1.4h-3.9
			c-0.8,0-1.4,0.6-1.4,1.4v3.7C643.9,356.8,645.5,358.9,647.2,358.9L647.2,358.9z"/>
		<path class="st11" d="M651,350.9l-7.6,0l0,2.8c-1.3-1.3-1.2-5.7-1.2-5.7l1.7-0.3l-0.6-1.2C652,348.3,651,350.9,651,350.9"/>
		<path class="st3" d="M643.4,346.5l-0.2-0.4c0,0,7.1,1,8.6,2.5c1.5,1.5-0.6,4.8-0.6,4.8l0-2.5C651,350.9,652,348.3,643.4,346.5"/>
		<path class="st8" d="M643,351.5c0.2-0.7,0.8-1.1,1.5-1.1l5.4,0c0.7,0,1.3,0.4,1.5,1.1c0.1-0.3,0.2-0.6,0.3-0.9
			c0.1-0.7,0-1.3-0.3-1.6c-0.5-0.5-1.9-1-3.9-1.5c-1.1-0.3-2.3-0.5-3.4-0.7l0.7,1.3l-2,0.3c0,0.2,0,0.4,0,0.6c0,0.6,0.1,1.3,0.2,1.9
			C643,351.1,643,351.3,643,351.5L643,351.5z M642.3,345.5l0.9,0.1l0.4,0.1c1.4,0.2,2.7,0.5,4.1,0.8c2.2,0.5,3.7,1.1,4.4,1.8
			c0.6,0.6,0.8,1.5,0.6,2.5c-0.1,0.6-0.3,1.2-0.6,1.8c-0.2,0.4-0.4,0.8-0.6,1.2l-0.9,1.4l0-1.6l0-1.4c0-0.3-0.3-0.6-0.6-0.6l-5.4,0
			c-0.3,0-0.6,0.3-0.6,0.6l0,2.8l-0.8-0.8c-0.6-0.6-0.9-1.6-1.1-2.9c-0.1-0.7-0.2-1.3-0.2-2c0-0.4,0-0.7,0-1.1v0l0-0.4l1.5-0.2
			L642.3,345.5L642.3,345.5z"/>
		<path class="st14" d="M640.7,344.5l0.3,0.6"/>
		<path class="st1" d="M645.8,363.6l1.4-2.1l-0.9-1.9l-2.4,1.3L645.8,363.6z"/>
		<path class="st8" d="M645.8,364.5l-2.6-3.7l3.3-1.9l1.3,2.7L645.8,364.5z M646.6,361.5l-0.6-1.2l-1.4,0.8l1.2,1.6L646.6,361.5
			L646.6,361.5z"/>
		<path class="st1" d="M648.8,363.6l-1.4-2.1l0.9-1.9l2.4,1.3L648.8,363.6z"/>
		<path class="st8" d="M650,361.1l-1.4-0.8l-0.6,1.2l0.8,1.2L650,361.1L650,361.1z M646.9,361.6l1.3-2.7l3.3,1.9l-2.6,3.7
			L646.9,361.6z M646.7,366.9h1v3.7h-1V366.9z M649,365.5v-1h3.6v1H649z"/>
		<path class="st8" d="M640,346.1l-0.4,0.3l-0.6-0.8l0.4-0.3c2.3-1.6,5.1-2.4,7.9-2.4c7.8,0,14.2,6.3,14.2,14.2
			c0,7.8-6.3,14.2-14.2,14.2c-7.8,0-14.2-6.3-14.2-14.2c0-2.2,0.5-4.4,1.5-6.4l0.2-0.4l0.9,0.4l-0.2,0.4c-0.9,1.8-1.4,3.9-1.4,5.9
			c0,7.3,5.9,13.2,13.2,13.2c7.3,0,13.2-5.9,13.2-13.2c0-7.3-5.9-13.2-13.2-13.2C644.7,343.9,642.2,344.6,640,346.1L640,346.1z"/>
	</g>
	<g>
		<g transform="translate(411.776 398.8)">
			<g>
				<path id="e" d="M214.2-5.1h251.2c4,0,7.2,3.2,7.2,7.2c0,0,0,0,0,0v43.2c0,4-3.2,7.2-7.2,7.2l0,0H214.2c-4,0-7.2-3.2-7.2-7.2
					c0,0,0,0,0,0V2.1C207-1.9,210.2-5.1,214.2-5.1C214.2-5.1,214.2-5.1,214.2-5.1z"/>
			</g>
			<g>
				<path id="e_1_" class="st7" d="M214.2-5.1h251.2c4,0,7.2,3.2,7.2,7.2c0,0,0,0,0,0v43.2c0,4-3.2,7.2-7.2,7.2l0,0H214.2
					c-4,0-7.2-3.2-7.2-7.2c0,0,0,0,0,0V2.1C207-1.9,210.2-5.1,214.2-5.1C214.2-5.1,214.2-5.1,214.2-5.1z"/>
			</g>
		</g>
		<path class="st3" d="M847.4,422.8h9.8c1.6,0,2.9,1.3,2.9,2.9v2.4c0,1.6-1.3,2.9-2.9,2.9h-0.8c-2.6,0-5.3,0.6-7.7,1.7l-1.8,0.8
			c0.1-0.7-0.5-1.3-1.2-1.8c-0.8-0.5-1.3-1.4-1.3-2.4v-3.6C844.5,424.2,845.8,422.8,847.4,422.8"/>
		<path class="st4" d="M848.9,424.3h8.7c1.4,0,2.6,1.1,2.6,2.5v2.1c0,1.4-1.2,2.5-2.6,2.5h-0.7c-2.3,0-4.5-0.3-6.7,0.6l-1.6,0.7
			l-0.7,0.2c0,0,0.2-0.6-0.4-1c-0.7-0.5-1.1-1.2-1.1-2.1v-3.1C846.3,425.4,847.5,424.3,848.9,424.3"/>
		<path class="st8" d="M848.6,432.4c2.5-1.1,5.1-1.7,7.8-1.7h0.8c1.4,0,2.5-1.1,2.5-2.5l0,0v-2.4c0-1.4-1.1-2.5-2.5-2.5l0,0h-9.8
			c-1.4,0-2.5,1.1-2.5,2.5l0,0v3.6c0,0.8,0.4,1.6,1.1,2.1c0.7,0.5,1.2,1,1.3,1.5L848.6,432.4L848.6,432.4z M847.4,422.4h9.8
			c1.8,0,3.3,1.5,3.3,3.3v2.4c0,1.8-1.5,3.3-3.3,3.3h-0.8c-2.6,0-5.1,0.6-7.5,1.6l-1.8,0.8c-0.2,0.1-0.4,0-0.5-0.2
			c0-0.1,0-0.2,0-0.2c0.1-0.4-0.3-0.9-1-1.4c-0.9-0.6-1.4-1.6-1.4-2.7v-3.6C844.1,423.9,845.6,422.4,847.4,422.4L847.4,422.4z"/>
		<path class="st5" d="M863.3,411.5h-9.8c-1.6,0-2.9,1.3-2.9,2.9l0,0v2.4c0,1.6,1.3,2.9,2.9,2.9c0,0,0,0,0,0h0.8
			c2.6,0,5.3,0.6,7.7,1.7l1.8,0.8c-0.1-0.7,0.5-1.3,1.2-1.8c0.8-0.5,1.3-1.4,1.3-2.4v-3.6C866.2,412.8,864.9,411.5,863.3,411.5"/>
		<path class="st6" d="M861.8,413h-8.7c-1.4,0-2.6,1.1-2.6,2.5v2.1c0,1.4,1.2,2.5,2.6,2.5h0.7c2.3,0,4.5-0.3,6.7,0.6l1.6,0.7
			l0.7,0.2c0,0-0.2-0.6,0.4-1c0.7-0.5,1.1-1.2,1.1-2.1v-3.1C864.4,414.1,863.2,413,861.8,413"/>
		<path class="st8" d="M863.3,411.1c1.8,0,3.3,1.5,3.3,3.3c0,0,0,0,0,0v3.6c0,1.1-0.5,2.1-1.4,2.7c-0.7,0.5-1.1,1-1,1.4
			c0,0.2-0.1,0.4-0.3,0.5c-0.1,0-0.2,0-0.2,0l-1.8-0.8c-2.4-1.1-4.9-1.6-7.5-1.6h-0.8c-1.8,0-3.3-1.5-3.3-3.3c0,0,0,0,0,0v-2.4
			c0-1.8,1.5-3.3,3.3-3.3L863.3,411.1L863.3,411.1z M864.7,420.1c0.7-0.5,1.1-1.2,1.1-2.1v-3.6c0-1.4-1.1-2.5-2.5-2.5l0,0h-9.8
			c-1.4,0-2.5,1.1-2.5,2.5l0,0v2.4c0,1.4,1.1,2.5,2.5,2.5l0,0h0.8c2.7,0,5.4,0.6,7.8,1.7l1.3,0.6C863.5,421.1,864,420.6,864.7,420.1
			L864.7,420.1z"/>
		<path class="st9" d="M825.7,393.7h1v57.6h-1V393.7z"/>
		<path class="st10" d="M680.1,409.6h47c2,0,3.6,1.6,3.6,3.6v0.8c0,2-1.6,3.6-3.6,3.6h-47c-2,0-3.6-1.6-3.6-3.6l0,0v-0.8
			C676.5,411.2,678.1,409.6,680.1,409.6L680.1,409.6L680.1,409.6z"/>
		<path class="st9" d="M678.3,424.7h126.1c1,0,1.8,0.8,1.8,1.8c0,1-0.8,1.8-1.8,1.8H678.3c-1,0-1.8-0.8-1.8-1.8
			C676.5,425.5,677.3,424.7,678.3,424.7L678.3,424.7z M678.3,433.5h92.4c1,0,1.8,0.8,1.8,1.8c0,1-0.8,1.8-1.8,1.8h-92.4
			c-1,0-1.8-0.8-1.8-1.8C676.5,434.3,677.3,433.5,678.3,433.5L678.3,433.5z"/>
		<g>
			<path class="st11" d="M645,426.1h6.7c0.4,0,0.8,0.1,1.2,0.2c-0.6-0.6-1.4-0.9-2.3-0.9h-6.7c-1.7,0-3.1,1.2-3.3,2.9l-0.1,5.3
				l3.7,1.5l9.5-1.3l-0.6-5.2C653.4,426.9,643.3,426.1,645,426.1"/>
			<path class="st3" d="M653.9,428.4c-0.1-0.8-0.4-1.6-1-2.1c-0.4-0.1-1.4-0.7-1.8-0.7l-6.1,0.5c-1.7,0-3.1,1.2-3.3,2.9l-0.1,5.2
				l5.5,1.3l6.8-1.7C653.9,433.6,653.9,428.5,653.9,428.4"/>
			<path class="st8" d="M641.1,433.6h-1v-5.4l0-0.1c0.2-1.9,1.9-3.3,3.8-3.3h6.7c2,0,3.6,1.6,3.8,3.6v5.3h-1v-0.5l0-4.8
				c-0.1-1.5-1.3-2.6-2.8-2.6h-6.7c-1.4,0-2.6,1-2.8,2.4L641.1,433.6L641.1,433.6z"/>
			<path class="st12" d="M647.2,426.2c0.5,0,0.9-0.4,0.9-0.9v-1.8c0-0.5-0.4-0.9-0.9-0.9c-0.5,0-0.9,0.4-0.9,0.9v1.8
				C646.3,425.8,646.7,426.2,647.2,426.2"/>
			<path class="st13" d="M647.2,426.2c0.5,0,0.9-0.4,0.9-0.9v-1.8c0-0.5-0.4-0.9-0.9-0.9c-0.5,0-0.9,0.4-0.9,0.9v1.8
				C646.3,425.8,646.7,426.2,647.2,426.2z"/>
			<path class="st5" d="M647.2,424.1c2.1,0,3.8-2.5,3.8-4.6v-3.7c0-1-0.8-1.9-1.9-1.9h-3.9c-1,0-1.9,0.8-1.9,1.9v3.7
				C643.4,421.5,645.1,424.1,647.2,424.1"/>
			<path class="st1" d="M649.6,419.4v-3.7c0-1-0.8-1.9-1.9-1.9h0.9c1,0,1.9,0.8,1.9,1.9v3.7c0,2.1-1.7,4.6-3.8,4.6
				c-0.2,0-0.3,0-0.5,0C648.1,423.7,649.6,421.4,649.6,419.4"/>
			<path class="st8" d="M647.2,424.6c-2.3,0-4.3-2.6-4.3-5.1v-3.7c0-1.3,1.1-2.4,2.4-2.4h3.9c1.3,0,2.4,1.1,2.4,2.4v3.7
				C651.5,421.9,649.5,424.6,647.2,424.6L647.2,424.6z M647.2,423.6c1.7,0,3.3-2.1,3.3-4.1v-3.7c0-0.8-0.6-1.4-1.4-1.4h-3.9
				c-0.8,0-1.4,0.6-1.4,1.4v3.7C643.9,421.4,645.5,423.6,647.2,423.6L647.2,423.6z"/>
			<path class="st11" d="M651,415.6l-7.6,0l0,2.8c-1.3-1.3-1.2-5.7-1.2-5.7l1.7-0.3l-0.6-1.2C652,413,651,415.6,651,415.6"/>
			<path class="st3" d="M643.4,411.2l-0.2-0.4c0,0,7.1,1,8.6,2.5c1.5,1.5-0.6,4.8-0.6,4.8l0-2.5C651,415.6,652,413,643.4,411.2"/>
			<path class="st8" d="M643,416.2c0.2-0.7,0.8-1.1,1.5-1.1l5.4,0c0.7,0,1.3,0.4,1.5,1.1c0.1-0.3,0.2-0.6,0.3-0.9
				c0.1-0.7,0-1.3-0.3-1.6c-0.5-0.5-1.9-1-3.9-1.5c-1.1-0.3-2.3-0.5-3.4-0.7l0.7,1.3l-2,0.3c0,0.2,0,0.4,0,0.6
				c0,0.6,0.1,1.3,0.2,1.9C643,415.8,643,416,643,416.2L643,416.2z M642.3,410.2l0.9,0.1l0.4,0.1c1.4,0.2,2.7,0.5,4.1,0.8
				c2.2,0.5,3.7,1.1,4.4,1.8c0.6,0.6,0.8,1.5,0.6,2.5c-0.1,0.6-0.3,1.2-0.6,1.8c-0.2,0.4-0.4,0.8-0.6,1.2l-0.9,1.4l0-1.6l0-1.4
				c0-0.3-0.3-0.6-0.6-0.6l-5.4,0c-0.3,0-0.6,0.3-0.6,0.6l0,2.8l-0.8-0.8c-0.6-0.6-0.9-1.6-1.1-2.9c-0.1-0.7-0.2-1.3-0.2-2
				c0-0.4,0-0.7,0-1.1v0l0-0.4l1.5-0.2L642.3,410.2L642.3,410.2z"/>
			<path class="st14" d="M640.7,409.2l0.3,0.6"/>
			<path class="st1" d="M645.8,428.3l1.4-2.1l-0.9-1.9l-2.4,1.3L645.8,428.3z"/>
			<path class="st8" d="M645.8,429.2l-2.6-3.7l3.3-1.9l1.3,2.7L645.8,429.2L645.8,429.2z M646.6,426.2L646,425l-1.4,0.8l1.2,1.6
				L646.6,426.2L646.6,426.2z"/>
			<path class="st1" d="M648.8,428.3l-1.4-2.1l0.9-1.9l2.4,1.3L648.8,428.3z"/>
			<path class="st8" d="M650,425.8l-1.4-0.8l-0.6,1.2l0.8,1.2L650,425.8L650,425.8z M646.9,426.3l1.3-2.7l3.3,1.9l-2.6,3.7
				L646.9,426.3z M646.7,431.6h1v3.7h-1V431.6z M649,430.2v-1h3.6v1H649z"/>
			<path class="st8" d="M640,410.8l-0.4,0.3l-0.6-0.8l0.4-0.3c2.3-1.6,5.1-2.4,7.9-2.4c7.8,0,14.2,6.3,14.2,14.2
				c0,7.8-6.3,14.2-14.2,14.2c-7.8,0-14.2-6.3-14.2-14.2c0-2.3,0.5-4.4,1.5-6.4l0.2-0.4l0.9,0.4l-0.2,0.4c-0.9,1.8-1.4,3.9-1.4,5.9
				c0,7.3,5.9,13.2,13.2,13.2c7.3,0,13.2-5.9,13.2-13.2c0-7.3-5.9-13.2-13.2-13.2C644.7,408.5,642.2,409.3,640,410.8L640,410.8z"/>
		</g>
	</g>
	<g>
		<g transform="translate(411.776 462.604)">
			<g>
				<path id="g" d="M214.2-5.1h251.2c4,0,7.2,3.2,7.2,7.2c0,0,0,0,0,0v43.2c0,4-3.2,7.2-7.2,7.2l0,0H214.2c-4,0-7.2-3.2-7.2-7.2
					c0,0,0,0,0,0V2.1C207-1.9,210.2-5.1,214.2-5.1C214.2-5.1,214.2-5.1,214.2-5.1z"/>
			</g>
			<g>
				<path id="g_1_" class="st7" d="M214.2-5.1h251.2c4,0,7.2,3.2,7.2,7.2c0,0,0,0,0,0v43.2c0,4-3.2,7.2-7.2,7.2l0,0H214.2
					c-4,0-7.2-3.2-7.2-7.2c0,0,0,0,0,0V2.1C207-1.9,210.2-5.1,214.2-5.1C214.2-5.1,214.2-5.1,214.2-5.1z"/>
			</g>
		</g>
		<path class="st3" d="M847.4,486.7h9.8c1.6,0,2.9,1.3,2.9,2.9v2.4c0,1.6-1.3,2.9-2.9,2.9h-0.8c-2.6,0-5.3,0.6-7.7,1.7l-1.8,0.8
			c0.1-0.7-0.5-1.3-1.2-1.8c-0.8-0.5-1.3-1.4-1.3-2.4v-3.6C844.5,488,845.8,486.7,847.4,486.7"/>
		<path class="st4" d="M848.9,488.1h8.7c1.4,0,2.6,1.1,2.6,2.5v2.1c0,1.4-1.2,2.5-2.6,2.5h-0.7c-2.3,0-4.5-0.3-6.7,0.6l-1.6,0.7
			l-0.7,0.2c0,0,0.2-0.6-0.4-1c-0.7-0.5-1.1-1.2-1.1-2.1v-3.1C846.3,489.2,847.5,488.1,848.9,488.1"/>
		<path class="st8" d="M848.6,496.2c2.5-1.1,5.1-1.7,7.8-1.7h0.8c1.4,0,2.5-1.1,2.5-2.5l0,0v-2.4c0-1.4-1.1-2.5-2.5-2.5l0,0h-9.8
			c-1.4,0-2.5,1.1-2.5,2.5l0,0v3.6c0,0.8,0.4,1.6,1.1,2.1c0.7,0.5,1.2,1,1.3,1.5L848.6,496.2L848.6,496.2z M847.4,486.2h9.8
			c1.8,0,3.3,1.5,3.3,3.3v2.4c0,1.8-1.5,3.3-3.3,3.3h-0.8c-2.6,0-5.1,0.6-7.5,1.6l-1.8,0.8c-0.2,0.1-0.4,0-0.5-0.2
			c0-0.1,0-0.2,0-0.2c0.1-0.4-0.3-0.9-1-1.4c-0.9-0.6-1.4-1.6-1.4-2.7v-3.6C844.1,487.7,845.6,486.2,847.4,486.2
			C847.4,486.2,847.4,486.2,847.4,486.2z"/>
		<path class="st5" d="M863.3,475.3h-9.8c-1.6,0-2.9,1.3-2.9,2.9c0,0,0,0,0,0v2.4c0,1.6,1.3,2.9,2.9,2.9c0,0,0,0,0,0h0.8
			c2.6,0,5.3,0.6,7.7,1.7l1.8,0.8c-0.1-0.7,0.5-1.3,1.2-1.8c0.8-0.5,1.3-1.4,1.3-2.4v-3.6C866.2,476.6,864.9,475.3,863.3,475.3"/>
		<path class="st6" d="M861.8,476.8h-8.7c-1.4,0-2.6,1.1-2.6,2.5v2.1c0,1.4,1.2,2.5,2.6,2.5h0.7c2.3,0,4.5-0.3,6.7,0.6l1.6,0.7
			l0.7,0.2c0,0-0.2-0.6,0.4-1c0.7-0.5,1.1-1.2,1.1-2.1v-3.1C864.4,477.9,863.2,476.8,861.8,476.8"/>
		<path class="st8" d="M863.3,474.9c1.8,0,3.3,1.5,3.3,3.3c0,0,0,0,0,0v3.6c0,1.1-0.5,2.1-1.4,2.7c-0.7,0.5-1.1,1-1,1.4
			c0,0.2-0.1,0.4-0.3,0.5c-0.1,0-0.2,0-0.2,0l-1.8-0.8c-2.4-1.1-4.9-1.6-7.5-1.6h-0.8c-1.8,0-3.3-1.5-3.3-3.3v-2.4
			c0-1.8,1.5-3.3,3.3-3.3L863.3,474.9L863.3,474.9z M864.7,483.9c0.7-0.5,1.1-1.2,1.1-2.1v-3.6c0-1.4-1.1-2.5-2.5-2.5l0,0h-9.8
			c-1.4,0-2.5,1.1-2.5,2.5l0,0v2.4c0,1.4,1.1,2.5,2.5,2.5l0,0h0.8c2.7,0,5.4,0.6,7.8,1.7l1.3,0.6C863.5,484.9,864,484.4,864.7,483.9
			L864.7,483.9z"/>
		<path class="st9" d="M825.7,457.5h1v57.6h-1V457.5z"/>
		<path class="st10" d="M680.1,473.4h47c2,0,3.6,1.6,3.6,3.6v0.8c0,2-1.6,3.6-3.6,3.6h-47c-2,0-3.6-1.6-3.6-3.6l0,0V477
			C676.5,475,678.1,473.4,680.1,473.4L680.1,473.4L680.1,473.4z"/>
		<path class="st9" d="M678.3,488.5h126.1c1,0,1.8,0.8,1.8,1.8c0,1-0.8,1.8-1.8,1.8H678.3c-1,0-1.8-0.8-1.8-1.8
			C676.5,489.3,677.3,488.5,678.3,488.5L678.3,488.5z M678.3,497.3h92.4c1,0,1.8,0.8,1.8,1.8c0,1-0.8,1.8-1.8,1.8h-92.4
			c-1,0-1.8-0.8-1.8-1.8C676.5,498.1,677.3,497.3,678.3,497.3L678.3,497.3z"/>
		<g>
			<path class="st11" d="M645,489.9h6.7c0.4,0,0.8,0.1,1.2,0.2c-0.6-0.6-1.4-0.9-2.3-0.9h-6.7c-1.7,0-3.1,1.2-3.3,2.9l-0.1,5.3
				l3.7,1.5l9.5-1.3l-0.6-5.2C653.4,490.7,643.3,489.9,645,489.9"/>
			<path class="st3" d="M653.9,492.2c-0.1-0.8-0.4-1.6-1-2.1c-0.4-0.1-1.4-0.7-1.8-0.7l-6.1,0.5c-1.7,0-3.1,1.2-3.3,2.9l-0.1,5.2
				l5.5,1.3l6.8-1.7C653.9,497.5,653.9,492.4,653.9,492.2"/>
			<path class="st8" d="M641.1,497.4h-1V492l0-0.1c0.2-1.9,1.9-3.3,3.8-3.3h6.7c2,0,3.6,1.6,3.8,3.6v5.3h-1V497l0-4.8
				c-0.1-1.5-1.3-2.6-2.8-2.6h-6.7c-1.4,0-2.6,1-2.8,2.4L641.1,497.4L641.1,497.4z"/>
			<path class="st12" d="M647.2,490c0.5,0,0.9-0.4,0.9-0.9v-1.8c0-0.5-0.4-0.9-0.9-0.9c-0.5,0-0.9,0.4-0.9,0.9v1.8
				C646.3,489.6,646.7,490,647.2,490"/>
			<path class="st13" d="M647.2,490c0.5,0,0.9-0.4,0.9-0.9v-1.8c0-0.5-0.4-0.9-0.9-0.9c-0.5,0-0.9,0.4-0.9,0.9v1.8
				C646.3,489.6,646.7,490,647.2,490L647.2,490z"/>
			<path class="st5" d="M647.2,487.9c2.1,0,3.8-2.5,3.8-4.6v-3.7c0-1-0.8-1.9-1.9-1.9h-3.9c-1,0-1.9,0.8-1.9,1.9v3.7
				C643.4,485.4,645.1,487.9,647.2,487.9"/>
			<path class="st1" d="M649.6,483.3v-3.7c0-1-0.8-1.9-1.9-1.9h0.9c1,0,1.9,0.8,1.9,1.9v3.7c0,2.1-1.7,4.6-3.8,4.6
				c-0.2,0-0.3,0-0.5,0C648.1,487.5,649.6,485.2,649.6,483.3"/>
			<path class="st8" d="M647.2,488.4c-2.3,0-4.3-2.6-4.3-5.1v-3.7c0-1.3,1.1-2.4,2.4-2.4h3.9c1.3,0,2.4,1.1,2.4,2.4v3.7
				C651.5,485.8,649.5,488.4,647.2,488.4L647.2,488.4z M647.2,487.4c1.7,0,3.3-2.1,3.3-4.1v-3.7c0-0.8-0.6-1.4-1.4-1.4h-3.9
				c-0.8,0-1.4,0.6-1.4,1.4v3.7C643.9,485.3,645.5,487.4,647.2,487.4L647.2,487.4z"/>
			<path class="st11" d="M651,479.4l-7.6,0l0,2.8c-1.3-1.3-1.2-5.7-1.2-5.7l1.7-0.3l-0.6-1.2C652,476.8,651,479.4,651,479.4"/>
			<path class="st3" d="M643.4,475l-0.2-0.4c0,0,7.1,1,8.6,2.5c1.5,1.5-0.6,4.8-0.6,4.8l0-2.5C651,479.4,652,476.8,643.4,475"/>
			<path class="st8" d="M643,480c0.2-0.7,0.8-1.1,1.5-1.1l5.4,0c0.7,0,1.3,0.4,1.5,1.1c0.1-0.3,0.2-0.6,0.3-0.9
				c0.1-0.7,0-1.3-0.3-1.6c-0.5-0.5-1.9-1-3.9-1.5c-1.1-0.3-2.3-0.5-3.4-0.7l0.7,1.3l-2,0.3c0,0.2,0,0.4,0,0.6
				c0,0.6,0.1,1.3,0.2,1.9C643,479.6,643,479.8,643,480L643,480z M642.3,474l0.9,0.1l0.4,0.1c1.4,0.2,2.7,0.5,4.1,0.8
				c2.2,0.5,3.7,1.1,4.4,1.8c0.6,0.6,0.8,1.5,0.6,2.5c-0.1,0.6-0.3,1.2-0.6,1.8c-0.2,0.4-0.4,0.8-0.6,1.2l-0.9,1.4l0-1.6l0-1.4
				c0-0.3-0.3-0.6-0.6-0.6l-5.4,0c-0.3,0-0.6,0.3-0.6,0.6l0,2.8l-0.8-0.8c-0.6-0.6-0.9-1.6-1.1-2.9c-0.1-0.7-0.2-1.3-0.2-2
				c0-0.4,0-0.7,0-1.1v0l0-0.4l1.5-0.2L642.3,474L642.3,474z"/>
			<path class="st14" d="M640.7,473l0.3,0.6"/>
			<path class="st1" d="M645.8,492.1l1.4-2.1l-0.9-1.9l-2.4,1.3L645.8,492.1z"/>
			<path class="st8" d="M645.8,493l-2.6-3.7l3.3-1.9l1.3,2.7L645.8,493L645.8,493z M646.6,490l-0.6-1.2l-1.4,0.8l1.2,1.6L646.6,490
				L646.6,490z"/>
			<path class="st1" d="M648.8,492.1l-1.4-2.1l0.9-1.9l2.4,1.3L648.8,492.1z"/>
			<path class="st8" d="M650,489.6l-1.4-0.8L648,490l0.8,1.2L650,489.6L650,489.6z M646.9,490.1l1.3-2.7l3.3,1.9l-2.6,3.7
				L646.9,490.1L646.9,490.1z M646.7,495.4h1v3.7h-1V495.4z M649,494v-1h3.6v1H649z"/>
			<path class="st8" d="M640,474.6l-0.4,0.3l-0.6-0.8l0.4-0.3c2.3-1.6,5.1-2.4,7.9-2.4c7.8,0,14.2,6.3,14.2,14.2
				c0,7.8-6.3,14.2-14.2,14.2c-7.8,0-14.2-6.3-14.2-14.2c0-2.2,0.5-4.4,1.5-6.4l0.2-0.4l0.9,0.4l-0.2,0.4c-0.9,1.8-1.4,3.9-1.4,5.9
				c0,7.3,5.9,13.2,13.2,13.2c7.3,0,13.2-5.9,13.2-13.2s-5.9-13.2-13.2-13.2C644.7,472.4,642.2,473.1,640,474.6L640,474.6z"/>
		</g>
	</g>
	<g>
		<g transform="translate(411.776 526.41)">
			<g>
				<path id="i" d="M214.2-5.1h251.2c4,0,7.2,3.2,7.2,7.2c0,0,0,0,0,0v43.2c0,4-3.2,7.2-7.2,7.2l0,0H214.2c-4,0-7.2-3.2-7.2-7.2
					c0,0,0,0,0,0V2.1C207-1.9,210.2-5.1,214.2-5.1C214.2-5.1,214.2-5.1,214.2-5.1z"/>
			</g>
			<g>
				<path id="i_1_" class="st7" d="M214.2-5.1h251.2c4,0,7.2,3.2,7.2,7.2c0,0,0,0,0,0v43.2c0,4-3.2,7.2-7.2,7.2l0,0H214.2
					c-4,0-7.2-3.2-7.2-7.2c0,0,0,0,0,0V2.1C207-1.9,210.2-5.1,214.2-5.1C214.2-5.1,214.2-5.1,214.2-5.1z"/>
			</g>
		</g>
		<path class="st3" d="M847.4,550.5h9.8c1.6,0,2.9,1.3,2.9,2.9v2.4c0,1.6-1.3,2.9-2.9,2.9h-0.8c-2.6,0-5.3,0.6-7.7,1.7l-1.8,0.8
			c0.1-0.7-0.5-1.3-1.2-1.8c-0.8-0.5-1.3-1.4-1.3-2.4v-3.6C844.5,551.8,845.8,550.5,847.4,550.5"/>
		<path class="st4" d="M848.9,551.9h8.7c1.4,0,2.6,1.1,2.6,2.5v2.1c0,1.4-1.2,2.5-2.6,2.5h-0.7c-2.3,0-4.5-0.3-6.7,0.6l-1.6,0.7
			l-0.7,0.2c0,0,0.2-0.6-0.4-1c-0.7-0.5-1.1-1.2-1.1-2.1v-3.1C846.3,553.1,847.5,551.9,848.9,551.9"/>
		<path class="st8" d="M848.6,560c2.5-1.1,5.1-1.7,7.8-1.7h0.8c1.4,0,2.5-1.1,2.5-2.5c0,0,0,0,0,0v-2.4c0-1.4-1.1-2.5-2.5-2.5
			c0,0,0,0,0,0h-9.8c-1.4,0-2.5,1.1-2.5,2.5c0,0,0,0,0,0v3.6c0,0.8,0.4,1.6,1.1,2.1c0.7,0.5,1.2,1,1.3,1.5L848.6,560z M847.4,550.1
			h9.8c1.8,0,3.3,1.5,3.3,3.3v2.4c0,1.8-1.5,3.3-3.3,3.3h-0.8c-2.6,0-5.1,0.6-7.5,1.6l-1.8,0.8c-0.2,0.1-0.4,0-0.5-0.2
			c0-0.1,0-0.2,0-0.2c0.1-0.4-0.3-0.9-1-1.4c-0.9-0.6-1.4-1.6-1.4-2.7v-3.6C844.1,551.5,845.6,550.1,847.4,550.1
			C847.4,550.1,847.4,550.1,847.4,550.1z"/>
		<path class="st5" d="M863.3,539.1h-9.8c-1.6,0-2.9,1.3-2.9,2.9c0,0,0,0,0,0v2.4c0,1.6,1.3,2.9,2.9,2.9c0,0,0,0,0,0h0.8
			c2.6,0,5.3,0.6,7.7,1.7l1.8,0.8c-0.1-0.7,0.5-1.3,1.2-1.8c0.8-0.5,1.3-1.4,1.3-2.4V542C866.2,540.4,864.9,539.1,863.3,539.1"/>
		<path class="st6" d="M861.8,540.6h-8.7c-1.4,0-2.6,1.1-2.6,2.5v2.1c0,1.4,1.2,2.5,2.6,2.5h0.7c2.3,0,4.5-0.3,6.7,0.6l1.6,0.7
			l0.7,0.2c0,0-0.2-0.6,0.4-1c0.7-0.5,1.1-1.2,1.1-2.1v-3.1C864.4,541.7,863.2,540.6,861.8,540.6"/>
		<path class="st8" d="M863.3,538.7c1.8,0,3.3,1.5,3.3,3.3c0,0,0,0,0,0v3.6c0,1.1-0.5,2.1-1.4,2.7c-0.7,0.5-1.1,1-1,1.4
			c0,0.2-0.1,0.4-0.3,0.5c-0.1,0-0.2,0-0.2,0l-1.8-0.8c-2.4-1.1-4.9-1.6-7.5-1.6h-0.8c-1.8,0-3.3-1.5-3.3-3.3V542
			c0-1.8,1.5-3.3,3.3-3.3H863.3z M864.7,547.7c0.7-0.5,1.1-1.2,1.1-2.1V542c0-1.4-1.1-2.5-2.5-2.5c0,0,0,0,0,0h-9.8
			c-1.4,0-2.5,1.1-2.5,2.5c0,0,0,0,0,0v2.4c0,1.4,1.1,2.5,2.5,2.5c0,0,0,0,0,0h0.8c2.7,0,5.4,0.6,7.8,1.7l1.3,0.6
			C863.5,548.7,864,548.2,864.7,547.7L864.7,547.7z"/>
		<path class="st9" d="M825.7,521.3h1v57.6h-1V521.3z"/>
		<path class="st10" d="M680.1,537.2h47c2,0,3.6,1.6,3.6,3.6v0.8c0,2-1.6,3.6-3.6,3.6h-47c-2,0-3.6-1.6-3.6-3.6v-0.8
			C676.5,538.8,678.1,537.2,680.1,537.2L680.1,537.2z"/>
		<path class="st9" d="M678.3,552.3h126.1c1,0,1.8,0.8,1.8,1.8c0,1-0.8,1.8-1.8,1.8H678.3c-1,0-1.8-0.8-1.8-1.8
			C676.5,553.1,677.3,552.3,678.3,552.3L678.3,552.3z M678.3,561.1h92.4c1,0,1.8,0.8,1.8,1.8c0,1-0.8,1.8-1.8,1.8h-92.4
			c-1,0-1.8-0.8-1.8-1.8C676.5,561.9,677.3,561.1,678.3,561.1L678.3,561.1z"/>
		<g>
			<path class="st11" d="M645,553.7h6.7c0.4,0,0.8,0.1,1.2,0.2c-0.6-0.6-1.4-0.9-2.3-0.9h-6.7c-1.7,0-3.1,1.2-3.3,2.9l-0.1,5.3
				l3.7,1.5l9.5-1.3l-0.6-5.2C653.4,554.5,643.3,553.7,645,553.7"/>
			<path class="st3" d="M653.9,556c-0.1-0.8-0.4-1.6-1-2.1c-0.4-0.1-1.4-0.7-1.8-0.7l-6.1,0.5c-1.7,0-3.1,1.2-3.3,2.9l-0.1,5.2
				l5.5,1.3l6.8-1.7C653.9,561.3,653.9,556.2,653.9,556"/>
			<path class="st8" d="M641.1,561.2h-1v-5.4l0-0.1c0.2-1.9,1.9-3.3,3.8-3.3h6.7c2,0,3.6,1.6,3.8,3.6v5.3h-1v-0.5l0-4.7
				c-0.1-1.5-1.3-2.6-2.8-2.6h-6.7c-1.4,0-2.6,1-2.8,2.4L641.1,561.2L641.1,561.2z"/>
			<path class="st12" d="M647.2,553.9c0.5,0,0.9-0.4,0.9-0.9v-1.8c0-0.5-0.4-0.9-0.9-0.9c-0.5,0-0.9,0.4-0.9,0.9v1.8
				C646.3,553.4,646.7,553.9,647.2,553.9"/>
			<path class="st13" d="M647.2,553.9c0.5,0,0.9-0.4,0.9-0.9v-1.8c0-0.5-0.4-0.9-0.9-0.9c-0.5,0-0.9,0.4-0.9,0.9v1.8
				C646.3,553.4,646.7,553.9,647.2,553.9z"/>
			<path class="st5" d="M647.2,551.7c2.1,0,3.8-2.5,3.8-4.6v-3.7c0-1-0.8-1.9-1.9-1.9h-3.9c-1,0-1.9,0.8-1.9,1.9v3.7
				C643.4,549.2,645.1,551.7,647.2,551.7"/>
			<path class="st1" d="M649.6,547.1v-3.7c0-1-0.8-1.9-1.9-1.9h0.9c1,0,1.9,0.8,1.9,1.9v3.7c0,2.1-1.7,4.6-3.8,4.6
				c-0.2,0-0.3,0-0.5,0C648.1,551.3,649.6,549,649.6,547.1"/>
			<path class="st8" d="M647.2,552.2c-2.3,0-4.3-2.6-4.3-5.1v-3.7c0-1.3,1.1-2.4,2.4-2.4h3.9c1.3,0,2.4,1.1,2.4,2.4v3.7
				C651.5,549.6,649.5,552.2,647.2,552.2L647.2,552.2z M647.2,551.2c1.7,0,3.3-2.1,3.3-4.1v-3.7c0-0.8-0.6-1.4-1.4-1.4h-3.9
				c-0.8,0-1.4,0.6-1.4,1.4v3.7C643.9,549.1,645.5,551.2,647.2,551.2L647.2,551.2z"/>
			<path class="st11" d="M651,543.2l-7.6,0l0,2.8c-1.3-1.3-1.2-5.7-1.2-5.7l1.7-0.3l-0.6-1.2C652,540.6,651,543.2,651,543.2"/>
			<path class="st3" d="M643.4,538.8l-0.2-0.4c0,0,7.1,1,8.6,2.5c1.5,1.5-0.6,4.8-0.6,4.8l0-2.5C651,543.2,652,540.6,643.4,538.8"/>
			<path class="st8" d="M643,543.8c0.2-0.7,0.8-1.1,1.5-1.1l5.4,0c0.7,0,1.3,0.4,1.5,1.1c0.1-0.3,0.2-0.6,0.3-0.9
				c0.1-0.7,0-1.3-0.3-1.6c-0.5-0.5-1.9-1-3.9-1.5c-1.1-0.3-2.3-0.5-3.4-0.7l0.7,1.3l-2,0.3c0,0.2,0,0.4,0,0.6
				c0,0.6,0.1,1.3,0.2,1.9C643,543.4,643,543.6,643,543.8L643,543.8z M642.3,537.8l0.9,0.1l0.4,0.1c1.4,0.2,2.7,0.5,4.1,0.8
				c2.2,0.5,3.7,1.1,4.4,1.8c0.6,0.6,0.8,1.5,0.6,2.5c-0.1,0.6-0.3,1.2-0.6,1.8c-0.2,0.4-0.4,0.8-0.6,1.2l-0.9,1.4l0-1.6l0-1.4
				c0-0.3-0.3-0.6-0.6-0.6l-5.4,0c-0.3,0-0.6,0.3-0.6,0.6l0,2.8l-0.8-0.8c-0.6-0.6-0.9-1.6-1.1-2.9c-0.1-0.7-0.2-1.3-0.2-2
				c0-0.4,0-0.7,0-1.1v0l0-0.4l1.5-0.2L642.3,537.8L642.3,537.8z"/>
			<path class="st14" d="M640.7,536.8l0.3,0.6"/>
			<path class="st1" d="M645.8,555.9l1.4-2.1l-0.9-1.9l-2.4,1.3L645.8,555.9z"/>
			<path class="st8" d="M645.8,556.8l-2.6-3.7l3.3-1.9l1.3,2.7L645.8,556.8L645.8,556.8z M646.6,553.8l-0.6-1.2l-1.4,0.8l1.2,1.6
				L646.6,553.8L646.6,553.8z"/>
			<path class="st1" d="M648.8,555.9l-1.4-2.1l0.9-1.9l2.4,1.3L648.8,555.9z"/>
			<path class="st8" d="M650,553.4l-1.4-0.8l-0.6,1.2l0.8,1.2L650,553.4L650,553.4z M646.9,553.9l1.3-2.7l3.3,1.9l-2.6,3.7
				L646.9,553.9L646.9,553.9z M646.7,559.2h1v3.7h-1V559.2z M649,557.8v-1h3.6v1H649z"/>
			<path class="st8" d="M640,538.4l-0.4,0.3l-0.6-0.8l0.4-0.3c2.3-1.6,5.1-2.4,7.9-2.4c7.8,0,14.2,6.3,14.2,14.2
				s-6.3,14.2-14.2,14.2c-7.8,0-14.2-6.3-14.2-14.2c0-2.2,0.5-4.4,1.5-6.4l0.2-0.4l0.9,0.4l-0.2,0.4c-0.9,1.8-1.4,3.9-1.4,5.9
				c0,7.3,5.9,13.2,13.2,13.2c7.3,0,13.2-5.9,13.2-13.2s-5.9-13.2-13.2-13.2C644.7,536.2,642.2,536.9,640,538.4L640,538.4z"/>
		</g>
	</g>
	<g>
		<g transform="translate(411.776 590.214)">
			<g>
				<path id="k" d="M214.2-5.1h251.2c4,0,7.2,3.2,7.2,7.2c0,0,0,0,0,0v43.2c0,4-3.2,7.2-7.2,7.2l0,0H214.2c-4,0-7.2-3.2-7.2-7.2
					c0,0,0,0,0,0V2.1C207-1.9,210.2-5.1,214.2-5.1C214.2-5.1,214.2-5.1,214.2-5.1z"/>
			</g>
			<g>
				<path id="k_1_" class="st7" d="M214.2-5.1h251.2c4,0,7.2,3.2,7.2,7.2c0,0,0,0,0,0v43.2c0,4-3.2,7.2-7.2,7.2l0,0H214.2
					c-4,0-7.2-3.2-7.2-7.2c0,0,0,0,0,0V2.1C207-1.9,210.2-5.1,214.2-5.1C214.2-5.1,214.2-5.1,214.2-5.1z"/>
			</g>
		</g>
		<path class="st3" d="M847.4,614.3h9.8c1.6,0,2.9,1.3,2.9,2.9v2.4c0,1.6-1.3,2.9-2.9,2.9c0,0,0,0,0,0h-0.8c-2.6,0-5.3,0.6-7.7,1.7
			L847,625c0.1-0.7-0.5-1.3-1.2-1.8c-0.8-0.5-1.3-1.4-1.3-2.4v-3.6C844.5,615.6,845.8,614.3,847.4,614.3"/>
		<path class="st4" d="M848.9,615.7h8.7c1.4,0,2.6,1.1,2.6,2.5v2.1c0,1.4-1.2,2.5-2.6,2.5h-0.7c-2.3,0-4.5-0.3-6.7,0.6l-1.6,0.7
			l-0.7,0.2c0,0,0.2-0.6-0.4-1c-0.7-0.5-1.1-1.2-1.1-2.1v-3.1C846.3,616.9,847.5,615.7,848.9,615.7"/>
		<path class="st8" d="M848.6,623.8c2.5-1.1,5.1-1.7,7.8-1.7h0.8c1.4,0,2.5-1.1,2.5-2.5c0,0,0,0,0,0v-2.4c0-1.4-1.1-2.5-2.5-2.5
			c0,0,0,0,0,0h-9.8c-1.4,0-2.5,1.1-2.5,2.5c0,0,0,0,0,0v3.6c0,0.8,0.4,1.6,1.1,2.1c0.7,0.5,1.2,1,1.3,1.5L848.6,623.8z
			 M847.4,613.9h9.8c1.8,0,3.3,1.5,3.3,3.3v2.4c0,1.8-1.5,3.3-3.3,3.3h0h-0.8c-2.6,0-5.1,0.6-7.5,1.6l-1.8,0.8
			c-0.2,0.1-0.4,0-0.5-0.2c0-0.1,0-0.2,0-0.2c0.1-0.4-0.3-0.9-1-1.4c-0.9-0.6-1.4-1.6-1.4-2.7v-3.6
			C844.1,615.3,845.6,613.9,847.4,613.9C847.4,613.9,847.4,613.9,847.4,613.9z"/>
		<path class="st5" d="M863.3,602.9h-9.8c-1.6,0-2.9,1.3-2.9,2.9c0,0,0,0,0,0v2.4c0,1.6,1.3,2.9,2.9,2.9c0,0,0,0,0,0h0.8
			c2.6,0,5.3,0.6,7.7,1.7l1.8,0.8c-0.1-0.7,0.5-1.3,1.2-1.8c0.8-0.5,1.3-1.4,1.3-2.4v-3.6C866.2,604.2,864.9,602.9,863.3,602.9"/>
		<path class="st6" d="M861.8,604.4h-8.7c-1.4,0-2.6,1.1-2.6,2.5v2.1c0,1.4,1.2,2.5,2.6,2.5h0.7c2.3,0,4.5-0.3,6.7,0.6l1.6,0.7
			l0.7,0.2c0,0-0.2-0.6,0.4-1c0.7-0.5,1.1-1.2,1.1-2.1v-3.1C864.4,605.5,863.2,604.4,861.8,604.4"/>
		<path class="st8" d="M863.3,602.5c1.8,0,3.3,1.5,3.3,3.3c0,0,0,0,0,0v3.6c0,1.1-0.5,2.1-1.4,2.7c-0.7,0.5-1.1,1-1,1.4
			c0,0.2-0.1,0.4-0.3,0.5c-0.1,0-0.2,0-0.2,0l-1.8-0.8c-2.4-1.1-4.9-1.6-7.5-1.6h-0.8c-1.8,0-3.3-1.5-3.3-3.3v-2.4
			c0-1.8,1.5-3.3,3.3-3.3h0H863.3z M864.7,611.6c0.7-0.5,1.1-1.2,1.1-2.1v-3.6c0-1.4-1.1-2.5-2.5-2.5c0,0,0,0,0,0h-9.8
			c-1.4,0-2.5,1.1-2.5,2.5c0,0,0,0,0,0v2.4c0,1.4,1.1,2.5,2.5,2.5c0,0,0,0,0,0h0.8c2.7,0,5.4,0.6,7.8,1.7l1.3,0.6
			C863.5,612.5,864,612,864.7,611.6L864.7,611.6z"/>
		<path class="st9" d="M825.7,585.1h1v57.6h-1V585.1z"/>
		<path class="st10" d="M680.1,601h47c2,0,3.6,1.6,3.6,3.6v0.8c0,2-1.6,3.6-3.6,3.6h-47c-2,0-3.6-1.6-3.6-3.6v-0.8
			C676.5,602.6,678.1,601,680.1,601L680.1,601z"/>
		<path class="st9" d="M678.3,616.1h126.1c1,0,1.8,0.8,1.8,1.8c0,1-0.8,1.8-1.8,1.8H678.3c-1,0-1.8-0.8-1.8-1.8
			C676.5,616.9,677.3,616.1,678.3,616.1L678.3,616.1z M678.3,625h92.4c1,0,1.8,0.8,1.8,1.8c0,1-0.8,1.8-1.8,1.8h-92.4
			c-1,0-1.8-0.8-1.8-1.8C676.5,625.7,677.3,625,678.3,625L678.3,625z"/>
		<g>
			<path class="st11" d="M645,617.5h6.7c0.4,0,0.8,0.1,1.2,0.2c-0.6-0.6-1.4-0.9-2.3-0.9h-6.7c-1.7,0-3.1,1.2-3.3,2.9l-0.1,5.3
				l3.7,1.5l9.5-1.3l-0.6-5.2C653.4,618.3,643.3,617.5,645,617.5"/>
			<path class="st3" d="M653.9,619.8c-0.1-0.8-0.4-1.6-1-2.1c-0.4-0.1-1.4-0.7-1.8-0.7l-6.1,0.5c-1.7,0-3.1,1.2-3.3,2.9l-0.1,5.2
				l5.5,1.3l6.8-1.7C653.9,625.1,653.9,620,653.9,619.8"/>
			<path class="st8" d="M641.1,625h-1v-5.4l0-0.1c0.2-1.9,1.9-3.3,3.8-3.3h6.7c2,0,3.6,1.6,3.8,3.6v5.3h-1v-0.5l0-4.7
				c-0.1-1.5-1.3-2.6-2.8-2.6h-6.7c-1.4,0-2.6,1-2.8,2.4L641.1,625L641.1,625z"/>
			<path class="st12" d="M647.2,617.7c0.5,0,0.9-0.4,0.9-0.9V615c0-0.5-0.4-0.9-0.9-0.9c-0.5,0-0.9,0.4-0.9,0.9v1.8
				C646.3,617.2,646.7,617.7,647.2,617.7"/>
			<path class="st13" d="M647.2,617.7c0.5,0,0.9-0.4,0.9-0.9V615c0-0.5-0.4-0.9-0.9-0.9c-0.5,0-0.9,0.4-0.9,0.9v1.8
				C646.3,617.2,646.7,617.7,647.2,617.7z"/>
			<path class="st5" d="M647.2,615.5c2.1,0,3.8-2.5,3.8-4.6v-3.7c0-1-0.8-1.9-1.9-1.9h-3.9c-1,0-1.9,0.8-1.9,1.9v3.7
				C643.4,613,645.1,615.5,647.2,615.5"/>
			<path class="st1" d="M649.6,610.9v-3.7c0-1-0.8-1.9-1.9-1.9h0.9c1,0,1.9,0.8,1.9,1.9v3.7c0,2.1-1.7,4.6-3.8,4.6
				c-0.2,0-0.3,0-0.5,0C648.1,615.1,649.6,612.8,649.6,610.9"/>
			<path class="st8" d="M647.2,616c-2.3,0-4.3-2.6-4.3-5.1v-3.7c0-1.3,1.1-2.4,2.4-2.4h3.9c1.3,0,2.4,1.1,2.4,2.4v3.7
				C651.5,613.4,649.5,616,647.2,616L647.2,616z M647.2,615c1.7,0,3.3-2.1,3.3-4.1v-3.7c0-0.8-0.6-1.4-1.4-1.4h-3.9
				c-0.8,0-1.4,0.6-1.4,1.4v3.7C643.9,612.9,645.5,615,647.2,615L647.2,615z"/>
			<path class="st11" d="M651,607l-7.6,0l0,2.8c-1.3-1.3-1.2-5.7-1.2-5.7l1.7-0.3l-0.6-1.2C652,604.4,651,607,651,607"/>
			<path class="st3" d="M643.4,602.6l-0.2-0.4c0,0,7.1,1,8.6,2.5c1.5,1.5-0.6,4.8-0.6,4.8l0-2.5C651,607,652,604.4,643.4,602.6"/>
			<path class="st8" d="M643,607.6c0.2-0.7,0.8-1.1,1.5-1.1l5.4,0c0.7,0,1.3,0.4,1.5,1.1c0.1-0.3,0.2-0.6,0.3-0.9
				c0.1-0.7,0-1.3-0.3-1.6c-0.5-0.5-1.9-1-3.9-1.5c-1.1-0.3-2.3-0.5-3.4-0.7l0.7,1.3l-2,0.3c0,0.2,0,0.4,0,0.6
				c0,0.6,0.1,1.3,0.2,1.9C643,607.2,643,607.4,643,607.6L643,607.6z M642.3,601.6l0.9,0.1l0.4,0.1c1.4,0.2,2.7,0.5,4.1,0.8
				c2.2,0.5,3.7,1.1,4.4,1.8c0.6,0.6,0.8,1.5,0.6,2.5c-0.1,0.6-0.3,1.2-0.6,1.8c-0.2,0.4-0.4,0.8-0.6,1.2l-0.9,1.4l0-1.6l0-1.4
				c0-0.3-0.3-0.6-0.6-0.6l-5.4,0c-0.3,0-0.6,0.3-0.6,0.6l0,2.8l-0.8-0.8c-0.6-0.6-0.9-1.6-1.1-2.9c-0.1-0.7-0.2-1.3-0.2-2
				c0-0.4,0-0.7,0-1.1v0l0-0.4l1.5-0.2L642.3,601.6L642.3,601.6z"/>
			<path class="st14" d="M640.7,600.6l0.3,0.6"/>
			<path class="st1" d="M645.8,619.7l1.4-2.1l-0.9-1.9l-2.4,1.3L645.8,619.7z"/>
			<path class="st8" d="M645.8,620.6l-2.6-3.7l3.3-1.9l1.3,2.7L645.8,620.6z M646.6,617.6l-0.6-1.2l-1.4,0.8l1.2,1.6L646.6,617.6
				L646.6,617.6z"/>
			<path class="st1" d="M648.8,619.7l-1.4-2.1l0.9-1.9l2.4,1.3L648.8,619.7z"/>
			<path class="st8" d="M650,617.2l-1.4-0.8l-0.6,1.2l0.8,1.2L650,617.2L650,617.2z M646.9,617.7l1.3-2.7l3.3,1.9l-2.6,3.7
				L646.9,617.7L646.9,617.7z M646.7,623h1v3.7h-1V623z M649,621.6v-1h3.6v1H649z"/>
			<path class="st8" d="M640,602.2l-0.4,0.3l-0.6-0.8l0.4-0.3c2.3-1.6,5.1-2.4,7.9-2.4c7.8,0,14.2,6.3,14.2,14.2
				s-6.3,14.2-14.2,14.2c-7.8,0-14.2-6.3-14.2-14.2c0-2.2,0.5-4.4,1.5-6.4l0.2-0.4l0.9,0.4l-0.2,0.4c-0.9,1.8-1.4,3.9-1.4,5.9
				c0,7.3,5.9,13.2,13.2,13.2c7.3,0,13.2-5.9,13.2-13.2s-5.9-13.2-13.2-13.2C644.7,600,642.2,600.8,640,602.2L640,602.2z"/>
		</g>
	</g>
</g>
<linearGradient id="SVGID_2_" gradientUnits="userSpaceOnUse" x1="145.7603" y1="751.9091" x2="146.7603" y2="751.9091" gradientTransform="matrix(609 0 0 -66 -88706.7813 49814.0469)">
	<stop  offset="0" style="stop-color:#FFFFFF"/>
	<stop  offset="1" style="stop-color:#FFFFFF;stop-opacity:0"/>
</linearGradient>
<path class="st15" d="M73.2,155h585c6.6,0,12,5.4,12,12v42c0,6.6-5.4,12-12,12h-585c-6.6,0-12-5.4-12-12v-42
	C61.2,160.4,66.6,155,73.2,155z"/>
<g transform="translate(405.348 231.28)">
	
		<linearGradient id="SVGID_3_" gradientUnits="userSpaceOnUse" x1="-264.1797" y1="516.6828" x2="-263.1797" y2="516.6828" gradientTransform="matrix(82 0 0 -83 21412.5352 43263.7617)">
		<stop  offset="0" style="stop-color:#FFFFFF"/>
		<stop  offset="1" style="stop-color:#FFFFFF;stop-opacity:0"/>
	</linearGradient>
	<path class="st16" d="M-238.2,337.6h58c6.6,0,12,5.4,12,12v59c0,6.6-5.4,12-12,12h-58c-6.6,0-12-5.4-12-12v-59
		C-250.2,343-244.8,337.6-238.2,337.6z"/>
	<path class="st7" d="M-236,343.8h55.3c4.4,0,8,3.6,8,8c0,0,0,0,0,0v54.6c0,4.4-3.6,8-8,8H-236c-4.4,0-8-3.6-8-8v-54.6
		C-244,347.3-240.4,343.8-236,343.8z"/>
	<path class="st14" d="M-217,362l0.4,0.8"/>
	<path class="st17" d="M-208.4,365.6c1.3,0,2.4,1,2.4,2.3c0,1.3-1.1,2.3-2.4,2.3c-1.3,0-2.4-1-2.4-2.3
		C-210.8,366.6-209.7,365.6-208.4,365.6 M-205.6,390.4v1.6c0,1.5-1.2,2.7-2.7,2.7c-1.5,0-2.7-1.2-2.7-2.7v-1.6H-205.6L-205.6,390.4z
		"/>
	<path class="st17" d="M-208.4,390.4v4.3c1.5,0,2.7-1.2,2.7-2.7v-1.6C-205.6,390.4-208.4,390.4-208.4,390.4z"/>
	<path class="st4" d="M-208.4,392h12.3c0-5.5-3.6-1.8-3.6-14.5c0-5.3-3.6-9.6-8.7-9.6s-8.7,4.3-8.7,9.6c0,12.8-3.6,9-3.6,14.5
		H-208.4z"/>
	<path class="st3" d="M-207,390.3h10.3c0-4.9-3-1.6-3-12.9c0-4.7-3-8.5-7.3-8.5c-4.3,0-7.3,3.8-7.3,8.5c0,10.6-2.6,8.4-3,12.1
		c0,0.4,0.3,0.8,0.7,0.8C-216.6,390.3-207,390.3-207,390.3z"/>
	<path class="st8" d="M-219.7,392.7c-0.9,0-1.7-0.8-1.6-1.7c0.1-1.2,0.4-2,1.1-2.9l0.4-0.5c0.1-0.2,0.2-0.3,0.4-0.5
		c1.1-1.7,1.7-4.3,1.7-9.6c0-5.8,4-10.2,9.4-10.2c5.5,0,9.4,4.4,9.4,10.2c0,5.4,0.6,8,1.7,9.6c0.1,0.2,0.2,0.3,0.4,0.5
		c0.1,0.1,0.3,0.4,0.4,0.5c0.7,0.9,1,1.6,1.1,2.9c0.1,0.9-0.6,1.7-1.6,1.7H-219.7z M-197,391.4c0.1,0,0.3-0.1,0.3-0.3
		c-0.1-1-0.3-1.5-0.9-2.2c-0.1-0.1-0.3-0.4-0.4-0.5c-0.1-0.2-0.3-0.4-0.4-0.6c-1.3-1.9-1.9-4.8-1.9-10.3c0-5.1-3.4-8.9-8.1-8.9
		s-8.1,3.8-8.1,8.9c0,5.6-0.6,8.4-1.9,10.3c-0.1,0.2-0.2,0.4-0.4,0.6l-0.4,0.5c-0.5,0.7-0.8,1.3-0.9,2.2c0,0.1,0.1,0.3,0.3,0.3
		C-219.7,391.4-197,391.4-197,391.4z"/>
	<path class="st5" d="M-203.2,374.4c0,1.4-0.8,2.5-1.8,2.5c-1,0-1.8-1.1-1.8-2.5c0-1.4,0.8-2.5,1.8-2.5
		C-204,371.9-203.2,373-203.2,374.4"/>
	<path class="st8" d="M-215.6,364.5l0.6-0.3l0.7,1.1l-0.6,0.3c-4,2.3-6.6,6.5-6.6,11.1v0.7h-1.3v-0.7
		C-222.9,371.7-220.1,367-215.6,364.5L-215.6,364.5z M-193.9,376.8v0.7h-1.3v-0.7c0-4.6-2.5-8.9-6.6-11.1l-0.6-0.3l0.7-1.1l0.6,0.3
		C-196.7,367-193.9,371.7-193.9,376.8z"/>
	<path class="st8" d="M-217.7,362.1l0.6-0.3l0.7,1.1l-0.6,0.3c-5.3,3-8.7,8.5-8.7,14.7v0.7h-1.3v-0.7
		C-227,371.3-223.4,365.4-217.7,362.1z M-189.7,377.9v0.7h-1.3v-0.7c0-6.1-3.4-11.7-8.7-14.7l-0.6-0.3l0.7-1.1l0.6,0.3
		C-193.3,365.4-189.7,371.3-189.7,377.9z"/>
</g>
<path class="st7" d="M76.7,162.3h395c4.4,0,8,3.6,8,8v35c0,4.4-3.6,8-8,8h-395c-4.4,0-8-3.6-8-8v-35
	C68.7,165.9,72.3,162.3,76.7,162.3L76.7,162.3z"/>
<path class="st10" d="M388.7,171.7h73.6c3.6,0,4.9,0.4,6.2,1.1c1.3,0.7,2.3,1.7,3,3c0.7,1.3,1.1,2.6,1.1,6.2v16.4
	c0,3.6-0.4,4.9-1.1,6.2c-0.7,1.3-1.7,2.3-3,3c-1.3,0.7-2.6,1.1-6.2,1.1h-73.6c-3.6,0-4.9-0.4-6.2-1.1c-1.3-0.7-2.3-1.7-3-3
	c-0.7-1.3-1.1-2.6-1.1-6.2v-16.4c0-3.6,0.4-4.9,1.1-6.2c0.7-1.3,1.7-2.3,3-3C383.9,172.1,385.2,171.7,388.7,171.7L388.7,171.7z"/>
<text transform="matrix(1 0 0 1 396.473 193.828)" class="st7 st18 st19">VIDEOS!</text>
<path class="st3" d="M105.1,184.9c-0.3,6.3-5.6,11.2-12,10.9c-6.3-0.3-11.2-5.6-10.9-12c0.3-6.3,5.6-11.2,12-10.9
	C100.5,173.2,105.4,178.6,105.1,184.9"/>
<path class="st5" d="M105.1,183.7c-0.2,5.6-5,10-10.6,9.7c-5.6-0.2-10-5-9.7-10.6c0.2-5.6,5-10,10.6-9.7
	C101,173.3,105.3,178.1,105.1,183.7"/>
<path class="st20" d="M105.1,183.7c0.2-5.6-4.1-10.4-9.7-10.6c-3-0.1-5.9,1.1-7.9,3.3c1.9-1.5,4.2-2.2,6.6-2.1
	c5.6,0.2,10,5,9.7,10.6c-0.1,2.4-1,4.7-2.7,6.4C103.5,189.5,104.9,186.7,105.1,183.7"/>
<path class="st8" d="M95.3,173.3c-5.5-0.2-10.1,4-10.3,9.4c-0.2,5.5,4,10.1,9.4,10.3s10.1-4,10.3-9.4
	C105,178.2,100.8,173.6,95.3,173.3L95.3,173.3z M94.4,194.3c-6.1-0.3-10.8-5.4-10.6-11.6c0.3-6.1,5.4-10.8,11.6-10.6
	c6.1,0.3,10.8,5.4,10.6,11.6C105.7,189.8,100.5,194.6,94.4,194.3z"/>
<path class="st12" d="M103.7,192.8l-1.6-1.8l-1.3,1.2l1.6,1.8c0.5,0.5,0.4,1.3-0.1,1.7l6.9,7.5l3.1-2.8l-6.9-7.5
	C105,193.3,104.2,193.2,103.7,192.8"/>
<path class="st4" d="M103.8,193.4l-1.6-1.8l0.3-0.3l-0.4-0.4l-1.3,1.2l1.6,1.8c0.5,0.5,0.4,1.3-0.1,1.7l6.9,7.5l1-0.9l-6.6-7.2
	C104.2,194.7,104.3,193.9,103.8,193.4"/>
<path class="st3" d="M105.5,192.8c-0.5,0.5-1.3,0.4-1.7-0.1l-1.3-1.4l-0.3,0.3l1.6,1.8c0.5,0.5,0.4,1.3-0.1,1.7c0,0,0,0,0,0l6.6,7.2
	l2.1-1.9L105.5,192.8L105.5,192.8z"/>
<path class="st8" d="M104.2,192.4c0.2,0.3,0.6,0.3,0.9,0c0,0,0,0,0,0l0.4-0.4l7.7,8.4l-4,3.6l-7.7-8.4l0.4-0.4
	c0.3-0.2,0.3-0.6,0-0.9l-2-2.2l2.2-2L104.2,192.4L104.2,192.4z M102.1,191.8l-0.4,0.4l1.2,1.3c0.5,0.6,0.6,1.4,0.3,2.1l6.2,6.8
	l2.2-2.1l-6.2-6.8c-0.7,0.3-1.5,0.1-2.1-0.4C103.3,193.1,102.1,191.8,102.1,191.8z"/>
<path class="st21" d="M134.7,169.4h215c4.4,0,8,3.6,8,8v20.9c0,4.4-3.6,8-8,8h-215c-4.4,0-8-3.6-8-8v-20.9
	C126.7,172.9,130.3,169.4,134.7,169.4L134.7,169.4z"/>
<g>
	
		<linearGradient id="SVGID_4_" gradientUnits="userSpaceOnUse" x1="145.2663" y1="752.3375" x2="146.2663" y2="752.3375" gradientTransform="matrix(199 0 0 -240 -28217.8301 180681.75)">
		<stop  offset="0" style="stop-color:#FFFFFF"/>
		<stop  offset="1" style="stop-color:#FFFFFF;stop-opacity:0"/>
	</linearGradient>
	<path class="st22" d="M704.6,0.7h182.8c1,0,1.8,0.8,1.8,1.8c0,0,0,0,0,0v236.4c0,1-0.8,1.8-1.8,1.8l0,0H704.6
		c-8,0-14.4-6.4-14.4-14.4V15.1C690.2,7.2,696.6,0.7,704.6,0.7z"/>
	<g transform="translate(697.277 7.83)">
		<path class="st7" d="M8,0h168.8c4.4,0,8,3.6,8,8v209.8c0,4.4-3.6,8-8,8H8c-4.4,0-8-3.6-8-8V8C0,3.6,3.6,0,8,0z"/>
		<path class="st21" d="M37.8,199.3h107.5c2.2,0,4,1.8,4,4v9.7c0,2.2-1.8,4-4,4H37.8c-2.2,0-4-1.8-4-4v-9.7
			C33.8,201.1,35.5,199.3,37.8,199.3z"/>
		<ellipse class="st9" cx="167" cy="208.1" rx="10.7" ry="10.6"/>
		<ellipse class="st1" cx="167" cy="208.1" rx="3.6" ry="3.5"/>
		<ellipse class="st9" cx="16.9" cy="208.1" rx="6.2" ry="6.2"/>
		<path class="st10" d="M62.6,124.9h111c2.2,0,4,1.8,4,4v20.3c0,2.2-1.8,4-4,4h-111c-2.2,0-4-1.8-4-4v-20.3
			C58.6,126.7,60.4,124.9,62.6,124.9z"/>
		<g>
			<path class="st1" d="M66.6,130.6h102c1.1,0,2,0.9,2,2s-0.9,2-2,2h-102c-1.1,0-2-0.9-2-2S65.5,130.6,66.6,130.6z M66.6,137.5h102
				c1.1,0,2,0.9,2,2s-0.9,2-2,2h-102c-1.1,0-2-0.9-2-2S65.5,137.5,66.6,137.5z M66.6,144.3h45c1.1,0,2,0.9,2,2s-0.9,2-2,2h-45
				c-1.1,0-2-0.9-2-2S65.5,144.3,66.6,144.3z"/>
		</g>
		<path class="st21" d="M37.8,68.2h80.8c2.2,0,4,1.8,4,4v13.3c0,2.2-1.8,4-4,4H37.8c-2.2,0-4-1.8-4-4V72.2
			C33.8,70,35.5,68.2,37.8,68.2z"/>
		<g>
			<path class="st23" d="M40.9,73.5h74.5c1,0,1.8,0.8,1.8,1.8c0,1-0.8,1.8-1.8,1.8H40.9c-1,0-1.8-0.8-1.8-1.8
				C39.1,74.3,39.9,73.5,40.9,73.5L40.9,73.5z M40.9,80.6h25.5c1,0,1.8,0.8,1.8,1.8c0,1-0.8,1.8-1.8,1.8c0,0,0,0,0,0H40.9
				c-1,0-1.8-0.8-1.8-1.8C39.1,81.4,39.9,80.6,40.9,80.6C40.9,80.6,40.9,80.6,40.9,80.6L40.9,80.6z"/>
		</g>
		<path class="st11" d="M16.2,81.3h4.4c0.3,0,0.5,0.1,0.8,0.1c-0.4-0.4-0.9-0.6-1.5-0.6h-4.4c-1.1,0-2,0.8-2.1,1.9l0,3.5l2.4,1
			l6.3-0.9l-0.4-3.4C21.7,81.8,15.1,81.3,16.2,81.3"/>
		<path class="st3" d="M22,82.8c0-0.5-0.3-1-0.6-1.4c-0.2-0.1-0.9-0.5-1.2-0.5l-4,0.3c-1.1,0-2,0.8-2.1,1.9L14,86.6l3.6,0.9l4.4-1.1
			C22,86.3,22,82.9,22,82.8"/>
		<path class="st8" d="M13.6,86.3h-0.7v-3.5l0,0c0.2-1.2,1.2-2.2,2.5-2.2h4.4c1.3,0,2.4,1,2.5,2.3v3.5h-0.7v-3.4
			c-0.1-1-0.9-1.7-1.8-1.7h-4.4c-0.9,0-1.7,0.7-1.8,1.6C13.6,82.7,13.6,86.3,13.6,86.3z"/>
		<path class="st12" d="M17.6,81.4c0.3,0,0.6-0.3,0.6-0.6v-1.2c0-0.3-0.3-0.6-0.6-0.6c-0.3,0-0.6,0.3-0.6,0.6v1.2
			C17,81.2,17.3,81.4,17.6,81.4"/>
		<path class="st13" d="M17.6,81.4c0.3,0,0.6-0.3,0.6-0.6v-1.2c0-0.3-0.3-0.6-0.6-0.6c-0.3,0-0.6,0.3-0.6,0.6v1.2
			C17,81.2,17.3,81.4,17.6,81.4z"/>
		<path class="st5" d="M17.6,80c1.4,0,2.5-1.7,2.5-3v-2.4c0-0.7-0.6-1.2-1.2-1.2h-2.5c-0.7,0-1.2,0.6-1.2,1.2V77
			C15.1,78.4,16.2,80,17.6,80"/>
		<path class="st1" d="M19.2,77v-2.4c0-0.7-0.6-1.2-1.2-1.2h0.6c0.7,0,1.2,0.6,1.2,1.2V77c0,1.4-1.1,3-2.5,3c-0.1,0-0.2,0-0.3,0
			C18.2,79.8,19.2,78.2,19.2,77"/>
		<path class="st8" d="M17.6,80.3c-1.5,0-2.8-1.7-2.8-3.4v-2.4c0-0.9,0.7-1.6,1.6-1.6h2.5c0.9,0,1.6,0.7,1.6,1.6V77
			C20.4,78.6,19.1,80.3,17.6,80.3z M17.6,79.7c1.1,0,2.2-1.4,2.2-2.7v-2.4c0-0.5-0.4-0.9-0.9-0.9h-2.5c-0.5,0-0.9,0.4-0.9,0.9V77
			C15.4,78.3,16.5,79.7,17.6,79.7z"/>
		<path class="st11" d="M20.1,74.4l-5,0l0,1.8c-0.8-0.8-0.8-3.7-0.8-3.7l1.1-0.2l-0.4-0.8C20.8,72.7,20.1,74.4,20.1,74.4"/>
		<path class="st3" d="M15.1,71.6l-0.1-0.3c0,0,4.6,0.6,5.6,1.6c1,1-0.4,3.1-0.4,3.1l0-1.6C20.1,74.4,20.8,72.7,15.1,71.6"/>
		<path class="st8" d="M14.9,74.8c0.1-0.4,0.5-0.7,1-0.7l3.6,0c0.5,0,0.8,0.3,1,0.7c0.1-0.2,0.1-0.4,0.2-0.6c0.1-0.5,0-0.8-0.2-1.1
			c-0.3-0.3-1.3-0.7-2.6-1c-0.7-0.2-1.5-0.3-2.3-0.4l0.4,0.9l-1.3,0.2c0,0.1,0,0.3,0,0.4c0,0.4,0.1,0.8,0.1,1.2
			C14.8,74.6,14.8,74.7,14.9,74.8z M14.4,70.9L15,71l0.3,0c0.9,0.1,1.8,0.3,2.7,0.5c1.4,0.3,2.4,0.7,2.9,1.2c0.4,0.4,0.5,1,0.4,1.6
			c-0.1,0.4-0.2,0.8-0.4,1.2c-0.1,0.3-0.3,0.5-0.4,0.8l-0.6,0.9l0-1.1l0-0.9c0-0.2-0.2-0.4-0.4-0.4l-3.6,0c-0.2,0-0.4,0.2-0.4,0.4
			l0,1.9l-0.5-0.5c-0.4-0.4-0.6-1-0.7-1.9c-0.1-0.4-0.1-0.9-0.1-1.3c0-0.3,0-0.5,0-0.7v0l0-0.3l1-0.1L14.4,70.9L14.4,70.9z"/>
		<path class="st14" d="M13.3,70.2l0.2,0.4"/>
		<path class="st1" d="M16.6,82.8l0.9-1.3l-0.6-1.3L15.4,81L16.6,82.8z"/>
		<path class="st8" d="M16.6,83.4l-1.7-2.4l2.2-1.2l0.8,1.8L16.6,83.4z M17.2,81.4l-0.4-0.8l-0.9,0.5l0.8,1.1L17.2,81.4z"/>
		<path class="st1" d="M18.7,82.8l-0.9-1.3l0.6-1.3l1.6,0.9L18.7,82.8z"/>
		<path class="st8" d="M19.4,81.1l-0.9-0.5l-0.4,0.8l0.5,0.8L19.4,81.1L19.4,81.1z M17.4,81.5l0.8-1.8l2.2,1.2l-1.7,2.4
			C18.7,83.4,17.4,81.5,17.4,81.5z M17.2,84.9h0.7v2.4h-0.7V84.9z M18.8,84v-0.7h2.4V84H18.8z"/>
		<path class="st8" d="M12.9,71.3l-0.3,0.2l-0.4-0.5l0.3-0.2c4.3-2.9,10-1.7,12.9,2.5c2.9,4.3,1.7,10-2.5,12.9s-10,1.7-12.9-2.5
			c-1.9-2.8-2.1-6.4-0.6-9.4L9.6,74l0.6,0.3L10,74.6c-2.2,4.3-0.4,9.5,3.8,11.6s9.5,0.4,11.6-3.8s0.4-9.5-3.8-11.6
			C18.8,69.3,15.5,69.5,12.9,71.3z"/>
		<g>
			<path class="st21" d="M37.8,160.3h80.8c2.2,0,4,1.8,4,4v13.3c0,2.2-1.8,4-4,4H37.8c-2.2,0-4-1.8-4-4v-13.3
				C33.8,162.1,35.5,160.3,37.8,160.3z"/>
			<g>
				<path class="st23" d="M40.9,165.6h74.5c1,0,1.8,0.8,1.8,1.8c0,1-0.8,1.8-1.8,1.8H40.9c-1,0-1.8-0.8-1.8-1.8
					C39.1,166.4,39.9,165.6,40.9,165.6L40.9,165.6z M40.9,172.7h25.5c1,0,1.8,0.8,1.8,1.8c0,1-0.8,1.8-1.8,1.8H40.9
					c-1,0-1.8-0.8-1.8-1.8C39.1,173.5,39.9,172.7,40.9,172.7L40.9,172.7z"/>
			</g>
			<g>
				<path class="st11" d="M16.2,173.4h4.4c0.3,0,0.5,0.1,0.8,0.1c-0.4-0.4-0.9-0.6-1.5-0.6h-4.4c-1.1,0-2,0.8-2.1,1.9l0,3.5l2.4,1
					l6.3-0.9l-0.4-3.4C21.7,173.9,15.1,173.4,16.2,173.4"/>
				<path class="st3" d="M22,175c0-0.5-0.3-1-0.6-1.4c-0.2-0.1-0.9-0.5-1.2-0.5l-4,0.3c-1.1,0-2,0.8-2.1,1.9l-0.1,3.4l3.6,0.9
					l4.4-1.1C22,178.4,22,175,22,175"/>
				<path class="st8" d="M13.6,178.4h-0.7v-3.5l0,0c0.2-1.2,1.2-2.2,2.5-2.2h4.4c1.3,0,2.4,1,2.5,2.3v3.5h-0.7V175
					c-0.1-1-0.9-1.7-1.8-1.7h-4.4c-0.9,0-1.7,0.7-1.8,1.6L13.6,178.4L13.6,178.4z"/>
				<path class="st12" d="M17.6,173.5c0.3,0,0.6-0.3,0.6-0.6v-1.1c0-0.3-0.3-0.6-0.6-0.6c-0.3,0-0.6,0.3-0.6,0.6v1.1
					C17,173.3,17.3,173.5,17.6,173.5"/>
				<path class="st13" d="M17.6,173.5c0.3,0,0.6-0.3,0.6-0.6v-1.1c0-0.3-0.3-0.6-0.6-0.6c-0.3,0-0.6,0.3-0.6,0.6v1.1
					C17,173.3,17.3,173.5,17.6,173.5z"/>
				<path class="st5" d="M17.6,172.1c1.4,0,2.5-1.7,2.5-3v-2.4c0-0.7-0.6-1.2-1.2-1.2h-2.5c-0.7,0-1.2,0.6-1.2,1.2v2.4
					C15.1,170.5,16.2,172.1,17.6,172.1"/>
				<path class="st1" d="M19.2,169.1v-2.4c0-0.7-0.6-1.2-1.2-1.2h0.6c0.7,0,1.2,0.6,1.2,1.2v2.5c0,1.4-1.1,3-2.5,3
					c-0.1,0-0.2,0-0.3,0C18.2,171.9,19.2,170.4,19.2,169.1"/>
				<path class="st8" d="M17.6,172.4c-1.5,0-2.8-1.7-2.8-3.4v-2.4c0-0.9,0.7-1.6,1.6-1.6h2.5c0.9,0,1.6,0.7,1.6,1.6v2.4
					C20.4,170.7,19.1,172.4,17.6,172.4z M17.6,171.8c1.1,0,2.2-1.4,2.2-2.7v-2.4c0-0.5-0.4-0.9-0.9-0.9h-2.5c-0.5,0-0.9,0.4-0.9,0.9
					v2.4C15.4,170.4,16.5,171.8,17.6,171.8z"/>
				<path class="st11" d="M20.1,166.5l-5,0l0,1.8c-0.8-0.8-0.8-3.7-0.8-3.7l1.1-0.2l-0.4-0.8C20.8,164.8,20.1,166.5,20.1,166.5"/>
				<path class="st3" d="M15.1,163.7l-0.1-0.3c0,0,4.6,0.6,5.6,1.6c1,1-0.4,3.1-0.4,3.1l0-1.6C20.1,166.5,20.8,164.8,15.1,163.7"/>
				<path class="st8" d="M14.9,166.9c0.1-0.4,0.5-0.7,1-0.7l3.6,0c0.5,0,0.8,0.3,1,0.7c0.1-0.2,0.1-0.4,0.2-0.6
					c0.1-0.5,0-0.8-0.2-1.1c-0.3-0.3-1.3-0.7-2.6-1c-0.7-0.2-1.5-0.3-2.3-0.4l0.4,0.9l-1.3,0.2c0,0.1,0,0.3,0,0.4
					c0,0.4,0.1,0.8,0.1,1.2C14.8,166.7,14.8,166.8,14.9,166.9L14.9,166.9z M14.4,163l0.6,0.1l0.3,0c0.9,0.1,1.8,0.3,2.7,0.5
					c1.4,0.3,2.4,0.7,2.9,1.2c0.4,0.4,0.5,1,0.4,1.6c-0.1,0.4-0.2,0.8-0.4,1.2c-0.1,0.3-0.3,0.5-0.4,0.8l-0.6,0.9l0-1.1l0-0.9
					c0-0.2-0.2-0.4-0.4-0.4l-3.6,0c-0.2,0-0.4,0.2-0.4,0.4l0,1.9l-0.5-0.5c-0.4-0.4-0.6-1-0.7-1.9c-0.1-0.4-0.1-0.9-0.1-1.3
					c0-0.3,0-0.5,0-0.7v0l0-0.3l1-0.1C15,164.2,14.4,163,14.4,163z"/>
				<path class="st14" d="M13.3,162.4l0.2,0.4"/>
				<path class="st1" d="M16.6,174.9l0.9-1.3l-0.6-1.3l-1.6,0.9L16.6,174.9z"/>
				<path class="st8" d="M16.6,175.5l-1.7-2.4l2.2-1.2l0.8,1.8L16.6,175.5L16.6,175.5z M17.2,173.5l-0.4-0.8l-0.9,0.5l0.8,1.1
					L17.2,173.5z"/>
				<path class="st1" d="M18.7,174.9l-0.9-1.3l0.6-1.3l1.6,0.9L18.7,174.9z"/>
				<path class="st8" d="M19.4,173.2l-0.9-0.5l-0.4,0.8l0.5,0.8L19.4,173.2L19.4,173.2z M17.4,173.6l0.8-1.8l2.2,1.2l-1.7,2.4
					C18.7,175.5,17.4,173.6,17.4,173.6z M17.2,177h0.7v2.4h-0.7V177z M18.8,176.1v-0.7h2.4v0.7H18.8z"/>
				<path class="st8" d="M12.9,163.4l-0.3,0.2l-0.4-0.5l0.3-0.2c4.3-2.9,10-1.7,12.9,2.5c2.9,4.3,1.7,10-2.5,12.9
					c-4.3,2.9-10,1.7-12.9-2.5c-1.9-2.8-2.1-6.4-0.6-9.4l0.1-0.3l0.6,0.3l-0.1,0.3c-2.2,4.3-0.4,9.5,3.8,11.6
					c4.3,2.2,9.5,0.4,11.6-3.8c2.2-4.3,0.4-9.5-3.8-11.6C18.8,161.4,15.5,161.7,12.9,163.4L12.9,163.4z"/>
			</g>
		</g>
		<g>
			<path class="st21" d="M37.8,100.1h46.2c2.2,0,4,1.8,4,4v6.2c0,2.2-1.8,4-4,4H37.8c-2.2,0-4-1.8-4-4v-6.2
				C33.8,101.9,35.5,100.1,37.8,100.1z"/>
			<path class="st23" d="M40.9,105.4h40.5c1,0,1.8,0.8,1.8,1.8c0,1-0.8,1.8-1.8,1.8c0,0,0,0,0,0H40.9c-1,0-1.8-0.8-1.8-1.8
				C39.1,106.2,39.9,105.4,40.9,105.4L40.9,105.4z"/>
			<g>
				<path class="st11" d="M16.2,109.7h4.4c0.3,0,0.5,0.1,0.8,0.1c-0.4-0.4-0.9-0.6-1.5-0.6h-4.4c-1.1,0-2,0.8-2.1,1.9l0,3.5l2.4,1
					l6.3-0.9l-0.4-3.4C21.7,110.2,15.1,109.7,16.2,109.7"/>
				<path class="st3" d="M22,111.2c0-0.5-0.3-1-0.6-1.4c-0.2-0.1-0.9-0.5-1.2-0.5l-4,0.3c-1.1,0-2,0.8-2.1,1.9L14,115l3.6,0.9
					l4.4-1.1C22,114.6,22,111.3,22,111.2"/>
				<path class="st8" d="M13.6,114.6h-0.7v-3.5l0,0c0.2-1.2,1.2-2.2,2.5-2.2h4.4c1.3,0,2.4,1,2.5,2.3v3.5h-0.7v-3.4
					c-0.1-1-0.9-1.7-1.8-1.7h-4.4c-0.9,0-1.7,0.7-1.8,1.6C13.6,111.1,13.6,114.6,13.6,114.6z"/>
				<path class="st12" d="M17.6,109.8c0.3,0,0.6-0.3,0.6-0.6V108c0-0.3-0.3-0.6-0.6-0.6c-0.3,0-0.6,0.3-0.6,0.6v1.2
					C17,109.5,17.3,109.8,17.6,109.8"/>
				<path class="st13" d="M17.6,109.8c0.3,0,0.6-0.3,0.6-0.6V108c0-0.3-0.3-0.6-0.6-0.6c-0.3,0-0.6,0.3-0.6,0.6v1.2
					C17,109.5,17.3,109.8,17.6,109.8z"/>
				<path class="st5" d="M17.6,108.3c1.4,0,2.5-1.7,2.5-3v-2.5c0-0.7-0.6-1.2-1.2-1.2h-2.5c-0.7,0-1.2,0.6-1.2,1.2v2.4
					C15.1,106.7,16.2,108.3,17.6,108.3"/>
				<path class="st1" d="M19.2,105.3v-2.4c0-0.7-0.6-1.2-1.2-1.2h0.6c0.7,0,1.2,0.6,1.2,1.2v2.4c0,1.4-1.1,3-2.5,3
					c-0.1,0-0.2,0-0.3,0C18.2,108.1,19.2,106.6,19.2,105.3"/>
				<path class="st8" d="M17.6,108.7c-1.5,0-2.8-1.7-2.8-3.4v-2.5c0-0.9,0.7-1.6,1.6-1.6h2.5c0.9,0,1.6,0.7,1.6,1.6v2.4
					C20.4,107,19.1,108.7,17.6,108.7z M17.6,108c1.1,0,2.2-1.4,2.2-2.7v-2.4c0-0.5-0.4-0.9-0.9-0.9h-2.5c-0.5,0-0.9,0.4-0.9,0.9v2.4
					C15.4,106.6,16.5,108,17.6,108z"/>
				<path class="st11" d="M20.1,102.8l-5,0l0,1.8c-0.8-0.8-0.8-3.7-0.8-3.7l1.1-0.2l-0.4-0.8C20.8,101.1,20.1,102.8,20.1,102.8"/>
				<path class="st3" d="M15.1,99.9l-0.1-0.3c0,0,4.6,0.6,5.6,1.6c1,1-0.4,3.1-0.4,3.1l0-1.6C20.1,102.8,20.8,101.1,15.1,99.9"/>
				<path class="st8" d="M14.9,103.2c0.1-0.4,0.5-0.7,1-0.7l3.6,0c0.5,0,0.8,0.3,1,0.7c0.1-0.2,0.1-0.4,0.2-0.6
					c0.1-0.5,0-0.8-0.2-1.1c-0.3-0.3-1.3-0.7-2.6-1c-0.7-0.2-1.5-0.3-2.3-0.4l0.4,0.9l-1.3,0.2c0,0.1,0,0.3,0,0.4
					c0,0.4,0.1,0.8,0.1,1.2C14.8,102.9,14.8,103,14.9,103.2z M14.4,99.2l0.6,0.1c1,0.1,2,0.3,2.9,0.6c1.4,0.3,2.4,0.7,2.9,1.2
					c0.4,0.4,0.5,1,0.4,1.6c-0.1,0.4-0.2,0.8-0.4,1.2c-0.1,0.3-0.3,0.5-0.4,0.8l-0.6,0.9l0-1.1l0-0.9c0-0.2-0.2-0.4-0.4-0.4l-3.6,0
					c-0.2,0-0.4,0.2-0.4,0.4l0,1.9l-0.5-0.5c-0.4-0.4-0.6-1-0.7-1.9c-0.1-0.4-0.1-0.9-0.1-1.3c0-0.3,0-0.5,0-0.7v0l0-0.3l1-0.1
					L14.4,99.2L14.4,99.2z"/>
				<path class="st14" d="M13.3,98.6l0.2,0.4"/>
				<path class="st1" d="M16.6,111.1l0.9-1.3l-0.6-1.3l-1.6,0.9L16.6,111.1z"/>
				<path class="st8" d="M16.6,111.7l-1.7-2.4l2.2-1.2l0.8,1.8L16.6,111.7z M17.2,109.7l-0.4-0.8l-0.9,0.5l0.8,1.1L17.2,109.7z"/>
				<path class="st1" d="M18.7,111.1l-0.9-1.3l0.6-1.3l1.6,0.9L18.7,111.1z"/>
				<path class="st8" d="M19.4,109.5l-0.9-0.5l-0.4,0.8l0.5,0.8L19.4,109.5z M17.4,109.8l0.8-1.8l2.2,1.2l-1.7,2.4
					C18.7,111.7,17.4,109.8,17.4,109.8z M17.2,113.3h0.7v2.4h-0.7V113.3z M18.8,112.3v-0.7h2.4v0.7L18.8,112.3z"/>
				<path class="st8" d="M12.9,99.6l-0.3,0.2l-0.4-0.5l0.3-0.2c4.3-2.9,10-1.7,12.9,2.5c2.9,4.3,1.7,10-2.5,12.9s-10,1.7-12.9-2.5
					c-1.9-2.8-2.1-6.4-0.6-9.4l0.1-0.3l0.6,0.3l-0.1,0.3c-2.2,4.3-0.4,9.5,3.8,11.6s9.5,0.4,11.6-3.8s0.4-9.5-3.8-11.6
					C18.8,97.7,15.5,97.9,12.9,99.6z"/>
			</g>
		</g>
		<g>
			<path class="st11" d="M24.5,30.6h6.7c0.4,0,0.8,0.1,1.2,0.2c-0.6-0.6-1.4-0.9-2.3-0.9h-6.7c-1.7,0-3.1,1.2-3.3,2.9L20,38.1
				l3.7,1.5l9.5-1.3l-0.6-5.2C32.8,31.4,22.8,30.6,24.5,30.6"/>
			<path class="st3" d="M33.3,33c-0.1-0.8-0.4-1.6-1-2.1c-0.4-0.1-1.4-0.7-1.8-0.7l-6.1,0.5c-1.7,0-3.1,1.2-3.3,2.9l-0.1,5.2
				l5.5,1.3l6.8-1.7C33.4,38.2,33.3,33.1,33.3,33"/>
			<path class="st8" d="M20.5,38.1h-1v-5.4l0-0.1c0.2-1.9,1.9-3.3,3.8-3.3H30c2,0,3.6,1.6,3.8,3.6v5.3h-1V33
				c-0.1-1.5-1.3-2.6-2.8-2.6h-6.7c-1.4,0-2.6,1-2.8,2.4C20.5,32.8,20.5,38.1,20.5,38.1z"/>
			<path class="st12" d="M26.7,30.8c0.5,0,0.9-0.4,0.9-0.9v-1.8c0-0.5-0.4-0.9-0.9-0.9c-0.5,0-0.9,0.4-0.9,0.9v1.8
				C25.7,30.4,26.2,30.8,26.7,30.8"/>
			<path class="st13" d="M26.7,30.8c0.5,0,0.9-0.4,0.9-0.9v-1.8c0-0.5-0.4-0.9-0.9-0.9c-0.5,0-0.9,0.4-0.9,0.9v1.8
				C25.7,30.4,26.2,30.8,26.7,30.8z"/>
			<path class="st5" d="M26.6,28.6c2.1,0,3.8-2.5,3.8-4.6v-3.7c0-1-0.8-1.9-1.9-1.9h-3.9c-1,0-1.9,0.8-1.9,1.9V24
				C22.8,26.1,24.5,28.6,26.6,28.6"/>
			<path class="st1" d="M29,24v-3.7c0-1-0.8-1.9-1.9-1.9h0.9c1,0,1.9,0.8,1.9,1.9V24c0,2.1-1.7,4.6-3.8,4.6c-0.2,0-0.3,0-0.5,0
				C27.6,28.3,29,26,29,24"/>
			<path class="st8" d="M26.6,29.1c-2.3,0-4.3-2.6-4.3-5.1v-3.7c0-1.3,1.1-2.4,2.4-2.4h3.9c1.3,0,2.4,1.1,2.4,2.4V24
				C31,26.5,28.9,29.1,26.6,29.1z M26.6,28.1c1.7,0,3.3-2.1,3.3-4.1v-3.7c0-0.8-0.6-1.4-1.4-1.4h-3.9c-0.8,0-1.4,0.6-1.4,1.4V24
				C23.3,26,25,28.1,26.6,28.1z"/>
			<path class="st11" d="M30.5,20.1l-7.6,0l0,2.8c-1.3-1.3-1.2-5.7-1.2-5.7l1.7-0.3l-0.6-1.2C31.5,17.6,30.5,20.1,30.5,20.1"/>
			<path class="st3" d="M22.8,15.8l-0.2-0.4c0,0,7.1,1,8.6,2.5c1.5,1.5-0.6,4.8-0.6,4.8l0-2.5C30.5,20.1,31.5,17.6,22.8,15.8"/>
			<path class="st8" d="M22.5,20.7c0.2-0.7,0.8-1.1,1.5-1.1l5.4,0c0.7,0,1.3,0.4,1.5,1.1c0.1-0.3,0.2-0.6,0.3-0.9
				c0.1-0.7,0-1.2-0.3-1.6c-0.5-0.5-1.9-1-3.9-1.5c-1.1-0.3-2.3-0.5-3.4-0.7l0.7,1.3l-2,0.3c0,0.2,0,0.4,0,0.6
				c0,0.6,0.1,1.3,0.2,1.9C22.4,20.4,22.4,20.5,22.5,20.7L22.5,20.7z M21.7,14.8l0.9,0.1c0.1,0,0.2,0,0.4,0.1
				c1.4,0.2,2.7,0.5,4.1,0.8c2.2,0.5,3.7,1.1,4.4,1.8c0.6,0.6,0.8,1.5,0.6,2.5c-0.1,0.6-0.3,1.2-0.6,1.8c-0.2,0.4-0.4,0.8-0.6,1.2
				l-0.9,1.4l0-1.6l0-1.4c0-0.3-0.3-0.6-0.6-0.6l-5.4,0c-0.3,0-0.6,0.3-0.6,0.6l0,2.8l-0.8-0.8c-0.6-0.6-0.9-1.6-1.1-2.9
				c-0.1-0.7-0.2-1.3-0.2-2c0-0.4,0-0.7,0-1.1v0l0-0.4l1.5-0.2L21.7,14.8L21.7,14.8z"/>
			<path class="st14" d="M20.1,13.8l0.3,0.6"/>
			<path class="st1" d="M25.2,32.9l1.4-2.1l-0.9-1.9l-2.4,1.3L25.2,32.9z"/>
			<path class="st8" d="M25.2,33.7L22.6,30l3.3-1.9l1.3,2.7L25.2,33.7z M26,30.8l-0.6-1.2L24,30.4l1.2,1.6L26,30.8z"/>
			<path class="st1" d="M28.3,32.9l-1.4-2.1l0.9-1.9l2.4,1.3L28.3,32.9z"/>
			<path class="st8" d="M29.4,30.4L28,29.6l-0.6,1.2l0.8,1.2L29.4,30.4z M26.3,30.9l1.3-2.7l3.3,1.9l-2.6,3.7
				C28.3,33.7,26.3,30.9,26.3,30.9z M26.1,36.1h1v3.7h-1V36.1z M28.5,34.7v-1h3.6v1H28.5z"/>
			<path class="st8" d="M19.4,15.4L19,15.6l-0.6-0.8l0.4-0.3c2.3-1.6,5.1-2.4,7.9-2.4c7.8,0,14.2,6.3,14.2,14.2
				c0,7.8-6.3,14.2-14.2,14.2c-7.8,0-14.2-6.3-14.2-14.2c0-2.2,0.5-4.4,1.5-6.4l0.2-0.4l0.9,0.5l-0.2,0.4c-0.9,1.8-1.4,3.9-1.4,5.9
				c0,7.3,5.9,13.2,13.2,13.2c7.3,0,13.2-5.9,13.2-13.2c0-7.3-5.9-13.2-13.2-13.2C24.1,13.1,21.6,13.9,19.4,15.4z"/>
		</g>
		<path class="st9" d="M53.3,0h1v54h-1V0z"/>
		<path class="st9" d="M0,53.1h184.8v1H0V53.1z M0,189.5h184.8v1H0V189.5z M66.6,31.9h31.1c1,0,1.8,0.8,1.8,1.8c0,1-0.8,1.8-1.8,1.8
			H66.6c-1,0-1.8-0.8-1.8-1.8C64.9,32.7,65.6,31.9,66.6,31.9z"/>
		<path class="st10" d="M68.4,17.7h63.1c2,0,3.5,1.6,3.5,3.5s-1.6,3.5-3.5,3.5H68.4c-2,0-3.5-1.6-3.5-3.5S66.4,17.7,68.4,17.7z"/>
	</g>
</g>
<g>
	<path id="XMLID_57_" class="st24" d="M328.2,397.8l-0.4-2.4l16.6-3c0.3,1.9,0.7,3.7,1,5.6l-2.4,0.4l-0.7-3.2l-8.9,1.6l1.2,6.9
		l9.1-1.6l0.4,2.5l-9.1,1.6l1.3,7l2.9-0.5l0.4,2.4c-2.6,0.5-5.5,1-8.1,1.5l-0.4-2.4l2.6-0.5l-3-16.4L328.2,397.8z M355,412.7
		c2.7-0.3,5.4-0.7,8.1-1l-0.3-2.5l-2.7,0.3l-2-16.5l2.7-0.3l-0.3-2.5c-2.7,0.3-5.4,0.7-8,1l0.3,2.5l2.7-0.3l2,16.5l-2.7,0.3
		L355,412.7 M384.9,407.5c-3.1,0.2-6.1,0.4-9.2,0.6l-1.1-16.6l2.5-0.2l-0.2-2.5l-7.9,0.5l0.2,2.5l2.7-0.2l1.1,16.6l-2.5,0.2l0.2,2.4
		c5.6-0.4,11.3-0.7,16.9-1.1l-0.4-5.8l-2.4,0.1L384.9,407.5 M416,392.1l-0.2,15.2l-2.6-0.1l0,2.4c2.6,0.1,5.3,0.1,7.9,0.1l0-2.4
		l-2.7,0l0.3-16.6l2.7,0.1l0-2.5l-5.9-0.1l-7.7,10.9l-7.4-11.2l-5.9-0.1l0,2.5l2.7,0l-0.3,16.6l-2.7,0l0,2.4c2.7,0,5.3,0.1,8,0.1
		l0-2.4l-2.6,0l0.2-15.3l7.6,11.1l0.6,0L416,392.1z M446.3,412.3l0.6-5.8l-2.4-0.2l-0.4,3.3l-10.2-1l0.7-7.1l9.8,1l0.2-2.5l-9.7-1
		l0.7-6.8l9.7,1l-0.2,3.3l2.4,0.2l0.6-5.7l-17.4-1.8l-0.2,2.4l2.6,0.3l-1.7,16.5l-2.7-0.3l-0.2,2.5L446.3,412.3z M472.8,396.8
		c-1.9-2.3-4.3-3.3-7.1-3.7c-3.7-0.7-8.3,0.1-9,4.5c-0.8,4.4,2.9,6.1,6.8,7.4c2.1,0.7,6.1,2,5.6,4.9c-0.5,3.1-4.2,3.3-6.8,2.8
		c-1.9-0.3-3.9-1.3-5.2-2.6l0.4-3l-2.4-0.4l-0.7,4.2c2,2.5,4.4,3.7,7.5,4.3c4.1,0.7,9,0.1,9.9-4.8c0.8-4.6-3.3-6.3-7.5-7.7
		c-3-1-5.4-2.1-5-4.5c0.4-2.5,3.4-3.1,6.1-2.7c1.6,0.3,3.5,1,4.8,2.1l-0.4,3.1l2.3,0.4C472.3,399.5,472.5,398.4,472.8,396.8
		 M557.4,367.8c14.8-3.5,21.6,2.2,17.9,11.2c-3,7.3-12,3.8-30.4,2.8c-5-0.3-9.5,0-13.6,0.6c0.4,2.8,0.6,5.9,0.6,9.1
		c0,16.6-11.5,43.5-32.1,48.6c-18,4.5-23.2-14.3-7.8-38.9c7.3-11.8,18.4-18.8,30.9-23.6c-0.5-3.5-1.7-6.9-3.4-9.8
		c-7.8,8.4-23.3,10.1-28.7,2.4c-5.1-7.6-1.9-15.4,2.6-18.1c6.5-3.9,15.6-3.1,23.3,2.7c-0.3-4.1-0.6-9.9-8.9-14.8
		c-13.7-8.2-27.5-9.7-48.2-11.2c-0.4,0-0.8-0.1-1.2-0.1c-1.4,10.5-2.2,22-2,34.2c0,0-0.2,4.8-5.2,5c-5,0.2-5.3-3.9-5.3-3.9
		s-2.2-14.8-1.6-35.7c-11.9,0.1-22.2,1.3-27.6,3.2c0,0,1.2,30.7-23.7,30.7c-26.1,0-24-31.1-24-31.1s-0.8-1.2-6.4-1.8
		c-3.5-0.1-11.1-0.2-20.7,0.5c-13,29-34.7,42.3-49.4,48.3c1.2,4.8,2.6,9.6,4.5,14.4c12.9,33.8,24.5,34.4,28.1,42.5
		c1.2,2.7-2.2,10.6-10.8,4.1c-8.8-7.9-26-26.4-36.5-56.8c-6.4,0.8-13.4,0.1-19.2-4.2c-5-3.8-7.7-14.4-1.4-23.2
		c3.7-5.2,8.1-8.4,12.4-11.6c-0.1-0.6-1-25.4,5.7-37.5c5.1-9.1,18.7-4.7,16.1,5.6c-1,4-3.3,13.4-3.9,22.2c6.5-3,14.7-5,22.3-7.1
		c5.8-1.6,10.9-3.1,17.2-4.1c14.3-34.5,10.8-63.2-8-67.1c-21.7-4.5-36.4,11-45.8,20.4c-14,14-16.5,30.6-20,40.2
		c-3,8.2-12.7,6-15.9-0.4c-3.2-6.4,3.1-27.6,10-35.8c20.9-29.5,47.9-38.7,74.1-33.3c26.2,5.4,34.3,33.1,25,72.6
		c7.6-0.6,11.8-0.3,19.1,0c9.4,0.4,13.4,2.5,13.4,2.5s-0.6,3.3,0.2,9.9c0.1,6.3,6.3,13.7,13.3,13.6c8.1-0.1,13.1-5.7,13.7-13.9
		c0.6-7.7,0.1-9.5,0.1-9.5s13.7-4.9,38.6-4.2c0.6-8.6,1.8-17.9,3.8-27.3c-28-0.4-36.8,2.9-49.5,6.6c-1.7,0.5-4.6,0.2-6.4-3.7
		c-1-4.2,3.4-6.4,3.4-6.4s26.5-8.8,56.3-11.3c2.7-8.7,6.1-17.4,10.6-25.7c1.9-3.7,8.2-2.4,8.2-2.4s6.7,1.6,6.4,9.1
		c-0.1,2.5-2.7,8.9-6,18.3c35.2,1.2,84.9,16.1,84.9,38.7c0,8.2-8.3,8.3-8.3,8.3s-5.7-0.2-7.6-4.8c0,0-8.6-23.7-74-26.5
		c-2.4,8.1-4.8,17.5-6.6,28c11.8,1.3,25.3,3.7,40.4,8.1c20,5.8,28.5,19.9,22.9,34.7c2.7,3.7,5,8.2,6.5,13.7
		C538.7,372.1,548.2,370,557.4,367.8 M274.3,373.8c0.2,0,0.4-0.1,0.6-0.1c-1.6-5.8-3-12-4-18.6c-1.7,1.6-3.2,3-4.2,4.2
		c-3.2,3.5-3.4,7.8-2.2,10.3C265.7,371.8,268,374.6,274.3,373.8 M289.7,368.4c9.6-5.1,27.6-16.1,34.1-35.1
		c-10.9,2.9-25.4,6.6-36.2,12.1C287.7,353.2,288.2,359.6,289.7,368.4 M501.6,368.4c4.9,2.3,10.5-0.9,13.2-6c-3-2.7-6.8-4.3-11-4.3
		C497.5,358.1,495.8,365.6,501.6,368.4 M505.3,423.7c14.3-11.5,18.6-21.9,17.9-39.5c-17.3,5.6-24,19-26.5,25.6
		C492.1,422.6,499,428.8,505.3,423.7"/>
	<g>
		<text transform="matrix(1 0 0 1 301.5647 526.381)"><tspan x="0" y="0" class="st24 st25 st26">A revoluo</tspan><tspan x="-28.4" y="50.8" class="st24 st25 st26">do audiovisual.</tspan></text>
	</g>
</g>
<g>
	<g>
		<g>
			<defs>
				<circle id="SVGID_5_" cx="599.2" cy="204.1" r="56"/>
			</defs>
			<clipPath id="SVGID_6_">
				<use xlink:href="#SVGID_5_"  style="overflow:visible;"/>
			</clipPath>
			<g class="st27">
			</g>
		</g>
	</g>
	<path class="st7" d="M583.2,203.9v-18.5c0-2.7,2.9-4.4,5.2-3l16,9.3l16,9.3c2.3,1.3,2.3,4.7,0,6.1l-16,9.3l-16,9.3
		c-2.3,1.3-5.2-0.3-5.2-3V203.9z"/>
</g>
<g>
	<g>
		<g>
			<path class="st28" d="M138,187.7c0.5,0,1,0,1.5,0c1.6,1.7,2.6,3.4,3.2,5.2c0,0,0,0,0,0c0.1-0.4,0.3-0.8,0.7-1.1
				c0.3-0.3,0.8-0.4,1.3-0.4c1,0,3.4,0.7,3.7,3.5c0.1,1.6-0.2,3.3-1,4.9c-0.5,0-1,0-1.5,0c0.8-1.6,1.1-3.2,1.1-4.7
				c0-1.3-0.9-2.5-2.3-2.5c-0.9,0-1.4,0.7-1.6,1.5c-0.1,0.2,0,0.4,0,0.7c0.1,1.7-0.2,3.3-1.1,5c-0.5,0-1,0-1.5,0
				C142.6,195.8,141.8,191.8,138,187.7z"/>
			<path class="st28" d="M150.4,189.3c0.4,0.5,0.2,0.9-0.4,0.9c-0.5,0-1.1-0.4-1.5-0.9c-0.4-0.5-0.3-0.9,0.3-0.9
				C149.3,188.4,150,188.8,150.4,189.3z M149.8,199.8c1.3-2.7,1.4-5.5,0.2-8.2c0.5,0,1,0,1.5,0c1.1,2.7,1.1,5.5-0.2,8.2
				C150.7,199.8,150.2,199.8,149.8,199.8z"/>
			<path class="st28" d="M154.6,194.3c-0.1-1-0.4-1.9-0.8-2.7c0.4,0,0.9,0,1.3,0c0.2,0.5,0.4,0.9,0.5,1.4c0,0,0,0,0,0
				c0.3-1,1-1.6,2.3-1.6c1.9,0,4.2,1.7,4.2,4.2c-0.1,2.9-2.8,4.4-4.6,4.4c-1.1,0-1.8-0.5-2-1.3c0,0,0,0,0,0c-0.5,1.5-1.3,3-2.5,4.4
				c-0.5,0-1,0-1.5,0C153.9,200.2,154.9,197.3,154.6,194.3z M156,196.5c0,0.2,0,0.4,0,0.6c0.1,1,0.7,1.7,1.7,1.7
				c1.5,0,2.9-1.3,3-3.2c0-1.6-1.2-3-2.8-3c-1,0-1.7,0.7-1.8,1.8c0,0.2-0.1,0.4-0.1,0.6C156.1,195.5,156.1,196,156,196.5z"/>
			<path class="st28" d="M164.8,196c-0.1,2,0.8,2.8,2.3,2.8c1,0,1.7-0.2,2.3-0.4c0,0.4,0,0.7-0.1,1.1c-0.6,0.2-1.6,0.5-2.9,0.5
				c-2.5,0-3.1-1.6-3-4.1c0.1-2.5,0.7-4.4,3-4.4c2.7,0,4,2.3,4,3.8c0,0.3,0,0.5-0.1,0.7C168.5,196,166.6,196,164.8,196z M169,194.9
				c0-0.9-0.7-2.4-2.4-2.4c-1.5,0-1.8,1.4-1.8,2.4C166.2,194.9,167.6,194.9,169,194.9z"/>
			<path class="st28" d="M173,196c-0.1,2,0.8,2.8,2.3,2.8c1,0,1.7-0.2,2.3-0.4c0,0.3,0,0.7,0,1c-0.6,0.2-1.6,0.5-2.8,0.5
				c-2.5,0-3.3-1.6-3.2-4.1c0.1-2.4,0.8-4.4,3.1-4.4c2.7,0,3.9,2.3,3.9,3.8c0,0.3,0,0.5-0.1,0.7C176.7,196,174.9,196,173,196z
				 M177.2,194.9c0-0.9-0.7-2.4-2.3-2.4c-1.5,0-1.8,1.4-1.9,2.4C174.4,194.9,175.8,194.9,177.2,194.9z"/>
			<path class="st28" d="M181.2,196c-0.1,2,0.9,2.8,2.4,2.8c1,0,1.7-0.2,2.3-0.4c0,0.3,0,0.7,0,1c-0.6,0.2-1.5,0.5-2.8,0.5
				c-2.5,0-3.4-1.6-3.3-4.1c0.1-2.4,0.9-4.3,3.2-4.3c2.7,0,3.8,2.3,3.8,3.8c0,0.3,0,0.5-0.1,0.7C185,196,183.1,196,181.2,196z
				 M185.5,194.9c0-0.9-0.6-2.4-2.3-2.4c-1.5,0-1.9,1.4-1.9,2.4C182.7,194.9,184.1,194.9,185.5,194.9z"/>
			<path class="st28" d="M189.5,196c-0.1,2,1,2.8,2.4,2.8c1,0,1.7-0.2,2.3-0.4c0,0.3,0.1,0.7,0.1,1c-0.6,0.2-1.5,0.5-2.8,0.5
				c-2.5,0-3.5-1.6-3.4-4c0.1-2.4,0.9-4.3,3.3-4.3c2.7,0,3.7,2.3,3.7,3.8c0,0.3,0,0.5-0.1,0.7C193.2,196,191.3,196,189.5,196z
				 M193.7,194.9c0-0.9-0.6-2.4-2.2-2.4c-1.5,0-1.9,1.4-2,2.4C190.9,194.9,192.3,194.9,193.7,194.9z"/>
			<path class="st28" d="M197.7,196c0,2,1,2.8,2.5,2.8c1,0,1.7-0.2,2.3-0.4c0,0.3,0.1,0.7,0.1,1c-0.5,0.2-1.5,0.5-2.8,0.5
				c-2.5,0-3.6-1.6-3.5-4c0-2.4,1-4.3,3.4-4.3c2.7,0,3.6,2.3,3.6,3.8c0,0.3,0,0.5-0.1,0.7C201.4,196,199.6,196,197.7,196z
				 M202,194.9c0-0.9-0.5-2.4-2.2-2.4c-1.5,0-1.9,1.4-2,2.4C199.1,194.9,200.5,194.9,202,194.9z"/>
			<path class="st28" d="M205.1,194.2c0-0.9-0.1-1.7-0.3-2.5c0.4,0,0.9,0,1.3,0c0.1,0.5,0.1,1,0.2,1.6c0,0,0,0,0.1,0
				c0.3-1.1,1.1-1.7,2.1-1.7c0.2,0,0.3,0,0.4,0c0.1,0.5,0.1,0.9,0.1,1.4c-0.2,0-0.3,0-0.5,0c-1,0-1.7,0.8-1.9,1.9
				c0,0.2-0.1,0.4-0.1,0.7c0,1.4-0.1,2.8-0.3,4.3c-0.5,0-1,0-1.4,0C205.1,197.9,205.2,196,205.1,194.2z"/>
			<path class="st28" d="M214,194.3c0-1-0.1-1.8-0.2-2.6c0.4,0,0.9,0,1.3,0c0.1,0.5,0.1,0.9,0.1,1.4c0,0,0,0,0,0
				c0.5-1,1.4-1.5,2.8-1.5c2,0,3.5,1.6,3.5,4c0,2.9-1.9,4.3-3.8,4.3c-1.1,0-2-0.5-2.4-1.2c0,0,0,0,0,0c-0.1,1.4-0.2,2.9-0.4,4.3
				c-0.5,0-1,0-1.5,0C213.9,200.1,214.1,197.2,214,194.3z M215.4,196.4c0,0.2,0,0.4,0.1,0.6c0.2,1,1.1,1.7,2.1,1.7
				c1.5,0,2.5-1.3,2.5-3.1c0-1.6-0.9-3-2.4-3c-1,0-1.9,0.7-2.1,1.8c0,0.2-0.1,0.4-0.1,0.6C215.4,195.5,215.4,196,215.4,196.4z"/>
			<path class="st28" d="M224.2,196c0,2,1.3,2.8,2.7,2.8c1,0,1.7-0.2,2.2-0.4c0.1,0.3,0.2,0.7,0.3,1c-0.5,0.2-1.4,0.5-2.7,0.5
				c-2.5,0-3.9-1.6-3.9-4c0-2.4,1.4-4.3,3.7-4.3c2.6,0,3.3,2.3,3.3,3.7c0,0.3,0,0.5,0,0.7C227.9,196,226,196,224.2,196z
				 M228.4,194.9c0-0.9-0.4-2.4-2-2.4c-1.5,0-2.1,1.3-2.2,2.4C225.6,194.9,227,194.9,228.4,194.9z"/>
			<path class="st28" d="M231.6,194.2c0-0.9,0-1.7,0-2.5c0.4,0,0.9,0,1.3,0c0,0.5,0,1,0,1.6c0,0,0,0,0.1,0c0.4-1.1,1.3-1.7,2.3-1.7
				c0.2,0,0.3,0,0.4,0c0,0.5,0,0.9,0,1.4c-0.1,0-0.3,0-0.5,0c-1,0-1.8,0.8-2,1.9c0,0.2-0.1,0.4-0.1,0.7c0,1.4,0,2.8,0.1,4.2
				c-0.5,0-1,0-1.4,0C231.6,197.9,231.6,196,231.6,194.2z"/>
			<path class="st28" d="M236.8,198.2c0.4,0.3,1.2,0.6,1.9,0.6c1.1,0,1.5-0.5,1.5-1.2c0-0.7-0.4-1.1-1.5-1.5
				c-1.4-0.5-2.1-1.3-2.1-2.3c0-1.3,1.1-2.3,2.9-2.3c0.8,0,1.5,0.2,1.9,0.5c-0.1,0.4-0.3,0.7-0.4,1.1c-0.3-0.2-0.9-0.5-1.6-0.5
				c-0.9,0-1.4,0.5-1.4,1.1c0,0.7,0.5,1,1.5,1.3c1.4,0.5,2.1,1.2,2.1,2.4c0.1,1.4-0.9,2.4-2.9,2.4c-0.9,0-1.7-0.2-2.3-0.5
				C236.6,198.9,236.7,198.6,236.8,198.2z"/>
			<path class="st28" d="M250.7,195.6c0.1,3-1.7,4.2-3.7,4.2c-2.2,0-4.1-1.6-4.1-4.1c0-2.7,1.9-4.2,4.2-4.2
				C249.4,191.5,250.7,193.2,250.7,195.6z M244.4,195.7c0,1.7,1.1,3.1,2.6,3.1c1.4,0,2.3-1.3,2.3-3.1c0-1.4-0.6-3.1-2.3-3.1
				C245.2,192.6,244.3,194.2,244.4,195.7z"/>
			<path class="st28" d="M252.5,193.9c0-0.8,0.1-1.5,0.1-2.2c0.4,0,0.9,0,1.3,0c0,0.4-0.1,0.9-0.1,1.3c0,0,0,0,0,0
				c0.5-0.8,1.5-1.5,2.8-1.5c1.2,0,2.6,0.7,2.5,3.4c0,1.6,0.1,3.2,0.4,4.8c-0.5,0-1,0-1.5,0c-0.3-1.5-0.4-3.1-0.4-4.6
				c0-1.3-0.3-2.4-1.7-2.4c-1,0-1.8,0.7-2.1,1.5c-0.1,0.2-0.1,0.4-0.1,0.7c0,1.6,0.1,3.2,0.3,4.8c-0.5,0-1,0-1.5,0
				C252.5,197.8,252.4,195.8,252.5,193.9z"/>
			<path class="st28" d="M266.5,199.7c-0.1-0.3-0.2-0.7-0.3-1c0,0,0,0,0,0c-0.3,0.6-1.1,1.2-2.2,1.2c-1.6,0-2.7-1.1-2.8-2.3
				c-0.2-1.9,1.6-3,4.7-3c0-0.1,0-0.1,0-0.2c0-0.7,0-1.9-1.6-1.9c-0.7,0-1.6,0.2-2.2,0.6c-0.1-0.3-0.1-0.6-0.2-1
				c0.7-0.4,1.8-0.7,2.8-0.7c2.5,0,2.7,1.7,2.6,3.3c0,1,0,2,0.1,3c0.1,0.7,0.3,1.4,0.5,1.9C267.4,199.7,267,199.7,266.5,199.7z
				 M265.8,195.6c-1.6,0-3.4,0.2-3.3,1.8c0.1,0.9,0.8,1.4,1.6,1.4c1,0,1.6-0.7,1.7-1.3c0-0.1,0-0.3,0-0.5
				C265.8,196.6,265.8,196.1,265.8,195.6z"/>
			<path class="st28" d="M271.3,187.9c0.5,0,1,0,1.5,0c-1.8,3.9-2.3,7.9-1.2,11.8c-0.5,0-1,0-1.5,0
				C269.1,195.8,269.5,191.9,271.3,187.9z"/>
			<path class="st28" d="M276.3,189.4c-0.2,0.5-0.7,0.9-1.3,0.9c-0.5,0-0.8-0.4-0.6-0.9c0.2-0.5,0.8-0.9,1.3-0.9
				C276.3,188.5,276.5,188.9,276.3,189.4z M274,199.7c-0.8-2.7-0.8-5.4-0.1-8c0.5,0,1,0,1.5,0c-0.7,2.7-0.6,5.4,0.1,8
				C275,199.7,274.5,199.7,274,199.7z"/>
			<path class="st28" d="M276.8,198.9c0.8-1.6,1.9-3.2,3.3-4.7c0.4-0.4,0.8-0.8,1.2-1.3c0,0,0,0,0,0c-1.4,0-2.9,0-4.3,0
				c0.1-0.4,0.2-0.8,0.3-1.2c2,0,4.1,0,6.1,0c-0.1,0.3-0.2,0.6-0.3,0.9c-1.5,1.6-2.8,3.1-3.8,4.7c-0.3,0.4-0.5,0.8-0.8,1.3
				c0,0,0,0,0,0c1.6,0,3.1,0,4.7,0c0.1,0.4,0.2,0.8,0.3,1.2c-2.2,0-4.4,0-6.5,0C276.9,199.5,276.8,199.2,276.8,198.9z"/>
			<path class="st28" d="M289.5,199.8c-0.2-0.3-0.3-0.7-0.5-1c0,0,0,0,0,0c-0.3,0.6-0.9,1.2-2.1,1.2c-1.6,0-2.9-1.2-3.1-2.3
				c-0.3-2,1.6-3,4.6-3c0-0.1,0-0.1,0-0.2c0-0.7,0.1-1.9-1.5-1.9c-0.7,0-1.6,0.2-2.2,0.6c0-0.3-0.1-0.6-0.1-1
				c0.8-0.4,1.8-0.7,2.9-0.7c2.5,0,2.4,1.7,2.4,3.3c-0.1,1,0,2,0.2,3c0.1,0.7,0.4,1.4,0.7,1.9C290.4,199.8,289.9,199.8,289.5,199.8z
				 M288.5,195.6c-1.6,0-3.4,0.3-3.2,1.8c0.2,1,0.9,1.4,1.7,1.4c1,0,1.5-0.7,1.6-1.4c0-0.2,0-0.3,0-0.5
				C288.5,196.6,288.5,196.1,288.5,195.6z"/>
			<path class="st28" d="M302,187.8c-2.5,3.3-3.4,6.6-2.7,9.9c0.2,0.7,0.5,1.6,0.8,2.1c-0.4,0-0.9,0-1.3,0c-0.2-0.5-0.4-0.9-0.6-1.4
				c0,0,0,0,0,0c-0.2,0.9-0.8,1.6-2.2,1.6c-1.9,0-4.3-1.7-4.4-4.1c-0.1-2.7,2.4-4.4,4.3-4.4c1.2,0,1.8,0.6,2,1.2c0,0,0,0,0,0
				c0.4-1.6,1.3-3.3,2.5-4.9C301,187.8,301.5,187.8,302,187.8z M297.7,195c0-0.2,0-0.4,0-0.6c-0.1-0.9-0.7-1.7-1.8-1.7
				c-1.5,0-2.8,1.4-2.8,3.1c0,1.6,1.3,3,2.9,3c1,0,1.6-0.7,1.7-1.8c0-0.2,0-0.4,0-0.6C297.6,195.9,297.6,195.4,297.7,195z"/>
			<path class="st28" d="M308.7,195.6c0.2,3-0.8,4.4-2.9,4.4c-2.1,0-4.8-1.6-4.9-4.2c0-2.7,2.6-4.4,4.8-4.4
				C308.1,191.4,308.7,193.1,308.7,195.6z M302.4,195.7c0,1.8,1.6,3.2,3,3.2c1.4,0,1.8-1.3,1.8-3.2c-0.1-1.4-0.2-3.2-1.9-3.2
				C303.6,192.5,302.3,194.2,302.4,195.7z"/>
			<path class="st28" d="M310.8,198.3c0.5,0.3,1.4,0.6,2.1,0.6c1.1,0,1.3-0.5,1.1-1.2c-0.2-0.7-0.6-1.1-1.7-1.5
				c-1.5-0.5-2.2-1.3-2-2.3c0.2-1.3,1.8-2.4,3.6-2.4c0.8,0,1.4,0.2,1.7,0.5c-0.3,0.4-0.5,0.7-0.8,1.1c-0.3-0.2-0.7-0.5-1.5-0.5
				c-0.9,0-1.5,0.5-1.6,1.1c-0.1,0.7,0.3,1,1.3,1.4c1.4,0.5,2,1.3,2.3,2.5c0.4,1.5-0.1,2.5-2,2.5c-0.9,0-1.8-0.2-2.5-0.6
				C310.8,199.1,310.8,198.7,310.8,198.3z"/>
		</g>
	</g>
	<path class="st29" d="M138.2,179.4v-4.3c0-0.6,0.7-1,1.2-0.7l3.7,2.1l3.7,2.1c0.5,0.3,0.5,1.1,0,1.4l-3.7,2.1l-3.7,2.1
		c-0.5,0.3-1.2-0.1-1.2-0.7V179.4z"/>
	<text transform="matrix(1 0 0 1 153.3736 183.9231)" class="st28 st25 st30">vdeos</text>
</g>
<g>
	<defs>
		<path id="SVGID_7_" d="M120.2,304H34.6c-12.4,0-22.5-10.1-22.5-22.5v-32.4c0-12.4,10.1-22.5,22.5-22.5h85.6
			c12.4,0,22.5,10.1,22.5,22.5v32.4C142.7,294,132.6,304,120.2,304z"/>
	</defs>
	<clipPath id="SVGID_8_">
		<use xlink:href="#SVGID_7_"  style="overflow:visible;"/>
	</clipPath>
	<g id="_x33_WcqUM_2_" class="st31">
		
			<image style="overflow:visible;" width="1178" height="667" id="_x33_WcqUM_1_" xlink:href="3FDDBAE6.png"  transform="matrix(0.126 0 0 0.126 10.9864 226.575)">
		</image>
	</g>
</g>
</svg>
